<?xml version="1.0" standalone="no"?>
<!DOCTYPE svg PUBLIC "-//W3C//DTD SVG 1.1//EN" "http://www.w3.org/Graphics/SVG/1.1/DTD/svg11.dtd" >
<svg>
<metadata>
Created by FontForge 20120731 at Fri Nov  4 07:41:52 2016
 By ,,,
Copyright (c) 2005-2006 by Joshua Darden, Inc. All rights reserved.
</metadata>
<defs>
<font id="Omnes-Semibold" horiz-adv-x="500" >
  <font-face 
    font-family="Omnes"
    font-weight="600"
    font-stretch="normal"
    units-per-em="1000"
    panose-1="2 0 6 6 5 0 0 2 0 4"
    ascent="800"
    descent="-200"
    x-height="488"
    cap-height="651"
    bbox="-80 -231.222 1090 901"
    underline-thickness="20"
    underline-position="-113"
    unicode-range="U+0020-FB02"
  />
<missing-glyph 
 />
    <glyph glyph-name=".notdef" 
 />
    <glyph glyph-name=".null" horiz-adv-x="0" 
 />
    <glyph glyph-name="nonmarkingreturn" horiz-adv-x="170" 
 />
    <glyph glyph-name="space" unicode=" " horiz-adv-x="170" 
 />
    <glyph glyph-name="exclam" unicode="!" horiz-adv-x="277" 
d="M130 200q-14 0 -22 11.5t-13 34.5l-39 321q-9 42 11 65.5t58 23.5h25q40 0 60 -23.5t11 -65.5l-39 -321q-5 -23 -13 -34.5t-24 -11.5h-15v0zM129 -7q-67 0 -67 66v14q0 66 67 66h17q68 0 68 -66v-14q0 -66 -68 -66h-17v0z" />
    <glyph glyph-name="quotedbl" unicode="&#x22;" horiz-adv-x="430" 
d="M302 355q-16 0 -23.5 9t-10.5 27l-29 187q-12 76 71 76q44 0 61 -19t11 -57l-30 -187q-3 -18 -10 -27t-23 -9h-17v0zM110 355q-16 0 -23 9t-10 27l-30 187q-12 76 71 76q44 0 61 -19t11 -57l-29 -187q-4 -18 -11 -27t-23 -9h-17v0z" />
    <glyph glyph-name="numbersign" unicode="#" horiz-adv-x="679" 
d="M403 -5q-2 -5 -16 -5q-9 0 -19.5 3.5t-20 11.5t-16 20.5t-6.5 29.5q0 16 7 36l17 57h-128l-47 -153q-2 -5 -16 -5q-9 0 -19.5 3.5t-20 11.5t-16 20.5t-6.5 29.5q0 16 7 36l18 57h-55q-58 0 -58 44v16q0 45 58 45h87l43 141h-54q-58 0 -58 45v16q0 44 58 44h87l47 153
q2 6 16 6q9 0 19.5 -4t20 -12t16 -20t6.5 -29q0 -16 -7 -37l-18 -57h129l47 153q2 6 16 6q9 0 19.5 -4t20 -12t16 -20t6.5 -29q0 -16 -7 -37l-18 -57h55q58 0 58 -44v-15q0 -46 -58 -46h-87l-43 -141h53q58 0 58 -44v-16q0 -45 -58 -45h-86zM382 252q1 0 8 22.5t15 49.5
q10 32 22 71h-131l-44 -143h130v0z" />
    <glyph glyph-name="dollar" unicode="$" horiz-adv-x="561" 
d="M343 647q83 -9 127.5 -42t44.5 -71q0 -17 -8 -31t-18 -24t-18.5 -14.5t-9.5 -3.5q-29 33 -74 55t-95 22q-51 0 -79.5 -20.5t-28.5 -54.5q0 -19 10 -32.5t27.5 -22.5t41.5 -15.5t53 -12.5q35 -7 72.5 -19t68.5 -33t51.5 -54t20.5 -82q0 -76 -49.5 -125.5t-137.5 -63.5v-39
q0 -68 -58 -68h-5q-32 0 -44.5 16.5t-12.5 51.5v37q-45 5 -80.5 17t-60 29t-37 37t-12.5 41q0 16 7.5 29.5t17 23t18 14.5t9.5 3q29 -35 80 -59.5t110 -24.5q54 0 83 20.5t29 54.5q0 21 -11 34.5t-29.5 23t-43 16.5t-51.5 13q-33 7 -69 18.5t-66 32t-49.5 53.5t-19.5 82
q0 72 47.5 121t128.5 64v37q0 35 13.5 51.5t43.5 16.5h6q31 0 44 -16.5t13 -51.5v-34v0z" />
    <glyph glyph-name="percent" unicode="%" horiz-adv-x="738" 
d="M182 340q-36 0 -66.5 11.5t-52 31.5t-33.5 48.5t-12 62.5v8q0 34 12 62.5t34 49t52.5 32t66.5 11.5t66 -11.5t51.5 -31.5t33.5 -48.5t12 -62.5v-8q0 -34 -12 -62.5t-34 -49t-52 -32t-66 -11.5zM134 -11q-2 -2 -12 0.5t-21.5 9t-20.5 16.5t-9 23t6 24t21 27l503 570
q2 2 12.5 0t21.5 -8t20 -16t9 -24q0 -11 -6 -23.5t-20 -28.5l-504 -570v0zM556 -9q-36 0 -66.5 11.5t-52 31.5t-33.5 48.5t-12 62.5v8q0 34 12 62.5t34 49t52.5 32t66.5 11.5t66 -11.5t51.5 -31.5t33.5 -48.5t12 -62.5v-8q0 -34 -12 -62.5t-34 -49t-52 -32t-66 -11.5z
M183 417q29 0 47.5 19.5t18.5 54.5v15q0 35 -19 54.5t-48 19.5t-47.5 -19.5t-18.5 -54.5v-15q0 -35 19 -54.5t48 -19.5zM557 69q28 0 47 19t19 54v15q0 35 -19 55t-48 20t-47.5 -20t-18.5 -55v-15q0 -34 19 -53.5t48 -19.5z" />
    <glyph glyph-name="ampersand" unicode="&#x26;" horiz-adv-x="687" 
d="M286 400q51 15 73.5 38t22.5 55q0 31 -19.5 51t-51.5 20q-35 0 -53.5 -21t-18.5 -53q0 -27 12 -48t35 -42zM233 305q-39 -16 -63 -42t-24 -67q0 -51 35 -79.5t91 -28.5q39 0 73.5 17t61.5 46zM476 241q13 23 22 48.5t20 57.5q14 38 30.5 52.5t42.5 14.5q16 0 28 -5.5
t20 -12t11.5 -12.5t3.5 -8q-14 -59 -38.5 -111t-56.5 -97l131 -114q1 -1 -3 -10.5t-13.5 -20.5t-24.5 -20.5t-36 -9.5q-18 0 -39.5 8t-44.5 33l-45 44q-44 -43 -98.5 -67t-123.5 -24q-112 0 -177.5 50t-65.5 145q0 68 40 113t111 69q-26 26 -42.5 58t-16.5 70
q0 37 14.5 67.5t41 53t63.5 35t82 12.5q41 0 74.5 -11.5t57.5 -32t37.5 -49t13.5 -63.5q0 -55 -37 -94.5t-105 -61.5z" />
    <glyph glyph-name="quotesingle" unicode="'" horiz-adv-x="238" 
d="M110 355q-16 0 -23 9t-10 27l-30 187q-12 76 71 76q44 0 61 -19t11 -57l-29 -187q-4 -18 -11 -27t-23 -9h-17v0z" />
    <glyph glyph-name="parenleft" unicode="(" horiz-adv-x="405" 
d="M332 -198q-52 0 -104.5 31.5t-94.5 88.5t-68.5 135.5t-26.5 171.5q0 91 26.5 169t68.5 135t94.5 89.5t104.5 32.5q67 0 67 -60q0 -18 -10 -31t-14 -15q-48 -12 -84.5 -41t-61 -71.5t-37.5 -95.5t-13 -112q0 -60 13 -113.5t37.5 -95.5t61 -71t84.5 -41q4 -2 14 -15t10 -31
q0 -60 -67 -60z" />
    <glyph glyph-name="parenright" unicode=")" horiz-adv-x="405" 
d="M73 -198q-67 0 -67 60q0 18 10 31t14 15q48 12 84.5 41t61 71t37.5 95.5t13 113.5q0 59 -13 112t-37.5 95.5t-61 71.5t-84.5 41q-4 2 -14 15t-10 31q0 60 67 60q52 0 104.5 -32.5t94.5 -89.5t68.5 -135t26.5 -169q0 -93 -26.5 -171.5t-68.5 -135.5t-94.5 -88.5
t-104.5 -31.5z" />
    <glyph glyph-name="asterisk" unicode="*" horiz-adv-x="411" 
d="M167 621q4 24 13 31t26 7h4q16 0 25.5 -7t13.5 -31l8 -84l86 18q23 4 33.5 -3t15.5 -22l1 -4q5 -17 1 -27.5t-25 -21.5l-79 -36l45 -78q11 -21 6.5 -33.5t-16.5 -20.5l-3 -2q-11 -8 -23.5 -8.5t-29.5 16.5l-62 68l-62 -68q-17 -17 -28.5 -16.5t-25.5 8.5l-3 2
q-14 8 -17 20.5t8 33.5l44 78l-78 36q-21 11 -25 21t1 28l1 4q5 17 15 23t33 2l87 -18z" />
    <glyph glyph-name="plus" unicode="+" horiz-adv-x="536" 
d="M86 206q-30 0 -44 13.5t-14 36.5v7q0 22 14 35.5t44 13.5h126v129q0 30 14 44t37 14h11q21 0 35.5 -14t14.5 -44v-129h126q31 0 44.5 -13.5t13.5 -35.5v-7q0 -23 -13.5 -36.5t-44.5 -13.5h-126v-136q0 -30 -14.5 -44t-35.5 -14h-11q-23 0 -37 14t-14 44v136h-126z" />
    <glyph glyph-name="comma" unicode="," horiz-adv-x="239" 
d="M83 -110q-9 -10 -22.5 -12t-25.5 2.5t-19.5 15.5t-4.5 26l45 159q8 31 20 46t47 15h15q26 0 41 -14.5t15 -46.5v-6q0 -18 -7 -36t-25 -39l-79 -110v0z" />
    <glyph glyph-name="hyphen" unicode="-" horiz-adv-x="428" 
d="M94 180q-29 0 -43.5 15.5t-14.5 38.5v21q0 23 14.5 38.5t43.5 15.5h240q29 0 43.5 -15.5t14.5 -38.5v-21q0 -23 -14.5 -38.5t-43.5 -15.5h-240v0z" />
    <glyph glyph-name="hyphen" unicode="&#xad;" horiz-adv-x="428" 
d="M94 180q-29 0 -43.5 15.5t-14.5 38.5v21q0 23 14.5 38.5t43.5 15.5h240q29 0 43.5 -15.5t14.5 -38.5v-21q0 -23 -14.5 -38.5t-43.5 -15.5h-240v0z" />
    <glyph glyph-name="period" unicode="." horiz-adv-x="239" 
d="M109 -7q-66 0 -66 66v14q0 66 66 66h18q68 0 68 -66v-14q0 -66 -68 -66h-18v0z" />
    <glyph glyph-name="slash" unicode="/" horiz-adv-x="359" 
d="M70 -209q-11 0 -24 2t-24 8t-18 17t-7 29q0 15 8 42l241 763q0 2 9 3.5t21 1.5q11 0 23.5 -2t23.5 -8t18 -17t7 -29q0 -13 -8 -42l-240 -763q-1 -2 -10 -3.5t-20 -1.5z" />
    <glyph glyph-name="zero" unicode="0" horiz-adv-x="643" 
d="M321 -13q-66 0 -118.5 21t-89 60.5t-56 96t-19.5 126.5v64q0 70 19.5 126.5t56.5 96t89.5 61t118.5 21.5t118.5 -21t89 -60.5t56 -96t19.5 -126.5v-64q0 -70 -19.5 -126.5t-56 -96t-89.5 -61t-119 -21.5zM322 107q66 0 100.5 44.5t34.5 130.5v83q0 86 -35 131.5
t-101 45.5t-100 -44.5t-34 -131.5v-83q0 -86 34.5 -131t100.5 -45z" />
    <glyph glyph-name="one" unicode="1" horiz-adv-x="391" 
d="M165 466q-13 -8 -27 -13t-31 -5q-39 0 -64 23t-25 60q0 18 5.5 31.5t12.5 22.5t13.5 13t7.5 3q14 -11 28 -16.5t33 -5.5q32 0 56 20.5t29 54.5h43q65 0 65 -68v-525q0 -68 -65 -68h-18q-63 0 -63 68v405v0z" />
    <glyph glyph-name="two" unicode="2" horiz-adv-x="554" 
d="M169 120q38 0 82 0.5t86 0.5h76h50q38 0 54 -14.5t16 -41.5v-6q0 -29 -16 -44t-54 -15h-340q-50 0 -69.5 15t-19.5 60v31q0 46 18 81.5t47 62.5t64.5 47.5t69.5 37.5q30 14 57 26.5t47 26t32 30t12 37.5q0 42 -28 64.5t-81 22.5q-31 0 -54.5 -9.5t-41 -25.5t-28 -36.5
t-16.5 -42.5q0 -1 -15 -1t-33 6t-33 20.5t-15 42.5q0 30 16 59.5t47 53t76.5 38t105.5 14.5q117 0 180 -53.5t63 -147.5q0 -45 -15.5 -76.5t-41 -54.5t-58.5 -39.5t-69 -31.5q-34 -14 -63 -28t-51 -29.5t-37 -35t-20 -45.5z" />
    <glyph glyph-name="three" unicode="3" horiz-adv-x="563" 
d="M405 348q61 -20 93 -62.5t32 -102.5q0 -93 -70 -144.5t-198 -51.5q-59 0 -105.5 13.5t-78 34.5t-48 47t-16.5 52q0 28 13.5 43t29.5 22t30 7t14 -2q16 -51 58 -77t102 -26t94 24.5t34 67.5q0 89 -115 89h-34q-37 0 -53 13t-16 37v8q0 50 67 50h48q45 0 68.5 20t23.5 55
q0 38 -31 60t-87 22q-31 0 -55 -8t-41.5 -20.5t-29.5 -29.5t-19 -35q0 -2 -13.5 -1.5t-29.5 7t-29 21.5t-13 42q0 26 16.5 50.5t46.5 43.5t73 31t96 12q124 0 189.5 -45.5t65.5 -131.5q0 -101 -112 -135z" />
    <glyph glyph-name="four" unicode="4" horiz-adv-x="610" 
d="M352 267v280l-198 -280h198zM531 270q34 0 48.5 -12.5t14.5 -40.5v-5q0 -29 -14.5 -41.5t-48.5 -12.5h-50v-97q0 -68 -62 -68h-14q-29 0 -44 18t-15 50v97h-239q-39 0 -61 18t-22 45v25q1 20 8 36.5t23 40.5l198 276q11 17 21 27.5t23.5 16.5t32 8.5t45.5 2.5
q57 0 81.5 -21t24.5 -75v-288h50z" />
    <glyph glyph-name="five" unicode="5" horiz-adv-x="550" 
d="M168 384q26 11 55.5 16.5t62.5 5.5q54 0 98 -14t75.5 -40.5t48.5 -64.5t17 -86q0 -49 -18 -88.5t-52 -67.5t-83 -43t-110 -15q-57 0 -102 11.5t-75.5 29.5t-47 40.5t-16.5 44.5q0 17 9 30.5t19.5 23t20.5 14t11 2.5q31 -42 76 -64.5t102 -22.5q63 0 99 28.5t36 76.5
q0 50 -33 77t-96 27q-48 0 -80 -11.5t-54 -28.5q-43 2 -65 21.5t-22 64.5v214q0 39 17.5 60.5t53.5 21.5h314q69 0 69 -58v-5q0 -57 -69 -57h-261v-143v0z" />
    <glyph glyph-name="six" unicode="6" horiz-adv-x="603" 
d="M183 348q29 26 74 45t101 19q49 0 89 -13t68.5 -37.5t44 -60.5t15.5 -83v-5q0 -50 -19 -91.5t-52.5 -71.5t-80.5 -46.5t-104 -16.5q-67 0 -119 22t-88 61.5t-55 95.5t-19 125v58q0 72 20 130t58 98t92 61.5t121 21.5q54 0 95 -10.5t68.5 -27.5t42 -40t14.5 -47
q0 -21 -11 -34.5t-24.5 -20.5t-24.5 -9t-12 -1q-19 29 -51.5 51t-86.5 22q-156 0 -156 -190v-5v0zM186 254q4 -74 37 -115t93 -41q51 0 84.5 28.5t33.5 76.5v5q0 49 -30 75t-87 26q-37 0 -71 -15.5t-60 -39.5z" />
    <glyph glyph-name="seven" unicode="7" horiz-adv-x="544" 
d="M367 523h-285q-32 0 -48.5 13.5t-16.5 44.5v9q0 30 16.5 43.5t48.5 13.5h347q31 0 50 -6t29 -16.5t13.5 -23.5t3.5 -28v-9q0 -27 -15.5 -56.5t-29.5 -53.5l-224 -409q-17 -29 -36.5 -40.5t-39.5 -11.5q-18 0 -34 7t-27.5 16t-17 17.5t-3.5 12.5z" />
    <glyph glyph-name="eight" unicode="8" horiz-adv-x="600" 
d="M300 94q61 0 93.5 25.5t32.5 69.5t-33.5 70t-92.5 26q-60 0 -93 -26t-33 -70q0 -42 33 -68.5t93 -26.5zM300 377q53 0 83 23.5t30 64.5q0 40 -29.5 65t-83.5 25q-55 0 -84 -24.5t-29 -65.5q0 -39 30.5 -63.5t82.5 -24.5zM159 332q-57 20 -83.5 56.5t-26.5 88.5
q0 41 18 75t51 58.5t79.5 38t103.5 13.5t103 -13t78 -37t49 -57.5t17 -75.5q0 -51 -26.5 -88t-81.5 -57q66 -20 97.5 -60.5t31.5 -98.5q0 -42 -19 -76.5t-54 -59t-85 -38t-112 -13.5q-128 0 -198.5 49.5t-70.5 137.5q0 57 32 97t97 60z" />
    <glyph glyph-name="nine" unicode="9" horiz-adv-x="603" 
d="M420 295q-29 -26 -74.5 -45t-100.5 -19q-49 0 -89 13t-68.5 37.5t-44 61t-15.5 82.5v4q0 50 19 92t52.5 73t80.5 48.5t104 17.5q65 0 116.5 -21t88 -60t56 -95.5t19.5 -127.5v-62q0 -152 -76 -230t-219 -78q-54 0 -95 9.5t-68.5 25.5t-41 36.5t-13.5 42.5q0 21 7.5 35
t16.5 22.5t17.5 11.5t9.5 2q26 -30 64.5 -49t92.5 -19q83 0 122 44.5t39 141.5v6v0zM417 390q-3 75 -36.5 117t-93.5 42q-51 0 -84.5 -31.5t-33.5 -79.5v-3q0 -49 30 -75t87 -26q38 0 71.5 15.5t59.5 40.5z" />
    <glyph glyph-name="colon" unicode=":" horiz-adv-x="255" 
d="M118 298q-67 0 -67 66v14q0 67 67 67h17q68 0 68 -67v-14q0 -66 -68 -66h-17v0zM118 -7q-67 0 -67 66v14q0 66 67 66h17q68 0 68 -66v-14q0 -66 -68 -66h-17v0z" />
    <glyph glyph-name="semicolon" unicode=";" horiz-adv-x="255" 
d="M118 298q-67 0 -67 66v14q0 67 67 67h17q68 0 68 -67v-14q0 -66 -68 -66h-17v0zM91 -110q-9 -10 -22.5 -12t-25.5 2.5t-19.5 15.5t-3.5 26l44 159q8 31 20.5 46t47.5 15h14q26 0 41.5 -14.5t15.5 -46.5v-6q0 -18 -7.5 -36t-25.5 -39l-79 -110v0z" />
    <glyph glyph-name="less" unicode="&#x3c;" horiz-adv-x="459" 
d="M179 260l182 -92q35 -17 47.5 -37.5t11.5 -39.5q0 -14 -5 -26t-11 -21t-11.5 -14t-8.5 -4l-304 163q-17 10 -29.5 26t-12.5 44q0 29 12.5 45t29.5 25l304 165q2 1 8 -4t12 -14t11 -21t5 -26q1 -20 -11.5 -40t-47.5 -37z" />
    <glyph glyph-name="equal" unicode="=" horiz-adv-x="536" 
d="M101 318q-31 0 -44.5 16t-13.5 39v12q0 22 13.5 38t44.5 16h335q30 0 44 -16t14 -38v-12q0 -23 -14 -39t-44 -16h-335v0zM101 76q-31 0 -44.5 16t-13.5 39v12q0 22 13.5 38t44.5 16h335q30 0 44 -16t14 -38v-12q0 -23 -14 -39t-44 -16h-335v0z" />
    <glyph glyph-name="greater" unicode="&#x3e;" horiz-adv-x="458" 
d="M98 352q-35 17 -47.5 37t-11.5 40q0 14 5 26t11 21t11.5 14t8.5 4l304 -165q17 -9 29 -25t12 -45q0 -28 -12 -44t-29 -26l-304 -163q-3 -1 -9 4t-12 14t-11 21t-5 26q0 19 12.5 39.5t47.5 37.5l182 92z" />
    <glyph glyph-name="question" unicode="?" horiz-adv-x="499" 
d="M227 195q-26 0 -43 12t-16 37q1 42 14.5 69t32.5 45t41.5 30t41.5 23.5t31.5 25t12.5 34.5q0 34 -24 53.5t-69 19.5q-31 0 -54.5 -10t-39 -26t-24.5 -37t-12 -42q0 -1 -15 -0.5t-33 6.5t-33 21t-15 43q0 27 14.5 55.5t43 52t71 38.5t99.5 15q53 0 95 -13t71 -36.5
t44.5 -56.5t15.5 -73q0 -41 -13.5 -68.5t-34 -46.5t-45 -33t-46 -29t-36.5 -34t-17 -48q-7 -27 -58 -27zM219 -7q-66 0 -66 66v14q0 66 66 66h18q68 0 68 -66v-14q0 -66 -68 -66h-18v0z" />
    <glyph glyph-name="at" unicode="@" horiz-adv-x="740" 
d="M421 352q-9 17 -24.5 27.5t-36.5 10.5q-30 0 -48 -20t-18 -54q0 -33 18 -53t47 -20q26 0 44 16t18 43v50zM424 420q7 26 23.5 35.5t33.5 9.5q15 0 25 -5t10 -7v-153q0 -37 12.5 -53t39.5 -16q32 0 53 32t21 98q0 51 -17 95t-50.5 76.5t-83.5 51t-116 18.5
q-61 0 -111.5 -21t-87 -58t-56.5 -88t-20 -112q0 -60 20.5 -111t57 -88t88 -58t113.5 -21q54 0 97.5 16t73.5 40q17 15 33 15q9 0 16 -5.5t12 -12.5t7 -13.5t1 -7.5q-40 -39 -101.5 -64.5t-138.5 -25.5q-76 0 -139 24.5t-107.5 69t-69 106t-24.5 136.5q0 74 24.5 136
t69 106.5t106.5 69.5t136 25q78 0 139.5 -22.5t103.5 -62t64 -94t22 -118.5q0 -96 -42 -146.5t-122 -50.5q-42 0 -70 17t-39 45q-13 -29 -39 -46t-59 -17q-31 0 -55.5 11.5t-41.5 32t-26.5 48t-9.5 59.5q0 34 10 62t27.5 48t42 31t53.5 11t52.5 -13.5t38.5 -34.5z" />
    <glyph glyph-name="A" unicode="A" horiz-adv-x="656" 
d="M413 275l-3.5 10t-10 26.5t-14.5 38t-16 43.5l-44 118l-89 -236h177zM208 165l-40 -104q-14 -38 -36 -53t-45 -15q-15 0 -30 5t-26 12.5t-17 15t-4 12.5l221 571q6 20 26 32t70 12q25 0 42 -3t27.5 -9t16.5 -14t9 -18l226 -570q2 -4 -4 -12t-17.5 -15.5t-26.5 -13
t-32 -5.5q-24 0 -47 15t-38 55l-39 102h-236z" />
    <glyph glyph-name="B" unicode="B" horiz-adv-x="637" 
d="M135 0q-36 0 -56.5 21.5t-20.5 60.5v483q0 39 20.5 60.5t56.5 21.5h222q110 0 167.5 -42.5t57.5 -123.5q0 -54 -29.5 -87.5t-86.5 -49.5q72 -17 106 -59t34 -101q0 -94 -62 -139t-199 -45h-210v0zM327 375q51 0 77 22t26 61q0 40 -24.5 59.5t-78.5 19.5h-124v-162h124z
M335 110q66 0 93 20.5t27 67.5q0 43 -28 63t-91 20h-133v-171h132z" />
    <glyph glyph-name="C" unicode="C" horiz-adv-x="654" 
d="M369 -13q-73 0 -134.5 24.5t-105 69t-68 106.5t-24.5 136t24.5 136t68.5 106.5t105.5 69.5t135.5 25q64 0 111 -15.5t77.5 -38t45.5 -47.5t15 -45q0 -24 -13 -39.5t-28.5 -24t-29 -11t-14.5 -0.5q-24 42 -66.5 65t-92.5 23q-40 0 -74.5 -14.5t-59.5 -41.5t-39 -64.5
t-14 -82.5t14 -82.5t39.5 -64.5t60 -42t75.5 -15q57 0 99.5 26t61.5 72q1 2 14.5 -0.5t30 -11t30 -24t13.5 -39.5q0 -21 -15.5 -48t-47 -51t-80 -40.5t-115.5 -16.5z" />
    <glyph glyph-name="D" unicode="D" horiz-adv-x="683" 
d="M140 0q-35 0 -58.5 23.5t-23.5 57.5v484q0 39 22 60.5t56 21.5h163q82 0 146.5 -22t109.5 -63.5t69 -101t24 -134.5t-24.5 -135.5t-70 -103t-111 -65t-147.5 -22.5h-155v0zM294 126q97 0 152 52t55 147q0 94 -54.5 145t-150.5 51h-92v-395h90z" />
    <glyph glyph-name="E" unicode="E" horiz-adv-x="600" 
d="M135 0q-36 0 -56.5 21t-20.5 60v484q0 39 20.5 60.5t56.5 21.5h361q35 0 51.5 -16.5t16.5 -45.5v-5q0 -62 -68 -62h-290v-128h212q36 0 52 -15t16 -42v-4q0 -60 -68 -60h-212v-141h295q68 0 68 -58v-6q0 -64 -68 -64h-366v0z" />
    <glyph glyph-name="F" unicode="F" horiz-adv-x="556" 
d="M120 -4q-30 0 -46 21.5t-16 60.5v487q0 39 20.5 60.5t56.5 21.5h334q68 0 68 -59v-6q0 -61 -68 -61h-266v-161h192q68 0 68 -57v-3q0 -60 -68 -60h-187v-176q0 -68 -65 -68h-23v0z" />
    <glyph glyph-name="G" unicode="G" horiz-adv-x="719" 
d="M545 79q-29 -42 -79.5 -66t-121.5 -24q-70 0 -127 25t-97 69.5t-61.5 105.5t-21.5 134q0 74 25 136t70 106.5t108 69.5t139 25q60 0 106.5 -12.5t78.5 -33t48.5 -45.5t16.5 -50q0 -22 -11.5 -36t-25 -22.5t-25.5 -11t-14 -0.5q-28 42 -73 63.5t-94 21.5
q-43 0 -79.5 -15.5t-63 -44t-41.5 -68.5t-15 -88t13.5 -87.5t38 -68t60 -44.5t78.5 -16q69 0 113.5 34t51.5 90v16h-115q-36 0 -53.5 11.5t-17.5 41.5v6q0 32 17.5 42.5t53.5 10.5h183q35 0 48.5 -17.5t12.5 -52.5v-274q0 -3 -14.5 -8.5t-34.5 -5.5q-13 0 -26 3.5t-23.5 13
t-18 25.5t-9.5 41z" />
    <glyph glyph-name="H" unicode="H" horiz-adv-x="692" 
d="M120 -4q-62 0 -62 67v521q0 67 62 67h22q64 0 64 -67v-197h280v197q0 67 62 67h21q65 0 65 -67v-521q0 -67 -65 -67h-21q-62 0 -62 67v199h-280v-199q0 -67 -64 -67h-22v0z" />
    <glyph glyph-name="I" unicode="I" horiz-adv-x="280" 
d="M129 -4q-63 0 -63 67v521q0 67 63 67h20q65 0 65 -67v-521q0 -67 -65 -67h-20v0z" />
    <glyph glyph-name="J" unicode="J" horiz-adv-x="497" 
d="M210 -13q-45 0 -80 9t-60 25t-38 36.5t-13 44.5q0 21 8.5 36t19 24.5t19 13.5t9.5 2q20 -30 49.5 -48t67.5 -18q54 0 77.5 28.5t23.5 97.5v346q0 67 62 67h21q64 0 64 -67v-348q0 -128 -57.5 -188.5t-172.5 -60.5z" />
    <glyph glyph-name="K" unicode="K" horiz-adv-x="614" 
d="M206 63q0 -67 -65 -67h-21q-62 0 -62 67v521q0 67 62 67h21q65 0 65 -67v-231l212 250q21 28 41 38t40 10q21 0 37 -8t26.5 -18.5t15.5 -20t3 -12.5l-219 -262l227 -276q2 -3 -3.5 -12.5t-17 -19.5t-28.5 -18t-38 -8q-22 0 -42 10t-39 36l-215 258v-237z" />
    <glyph glyph-name="L" unicode="L" horiz-adv-x="539" 
d="M135 0q-36 0 -56.5 21t-20.5 60v503q0 67 62 67h21q65 0 65 -67v-454h242q68 0 68 -62v-4q0 -64 -68 -64h-313v0z" />
    <glyph glyph-name="M" unicode="M" horiz-adv-x="759" 
d="M116 -4q-31 0 -44.5 17t-13.5 50v514q0 36 19 55t54 19h41q34 0 49 -11.5t28 -40.5l131 -307l132 307q14 30 29 41t46 11h39q36 0 55.5 -19t19.5 -55v-514q0 -33 -13 -50t-45 -17h-23q-58 0 -58 67v385l-108 -262q-4 -9 -8 -17.5t-11.5 -15t-20.5 -10t-35 -3.5t-35 3.5
t-20 9.5t-11 14.5t-8 18.5l-108 257v-380q0 -33 -13 -50t-45 -17h-23v0z" />
    <glyph glyph-name="N" unicode="N" horiz-adv-x="692" 
d="M119 -4q-61 0 -61 67v515q0 35 17 54t47 19h18q29 0 43.5 -10t31.5 -32l280 -385v360q0 67 63 67h14q62 0 62 -67v-515q0 -36 -17 -54.5t-46 -18.5h-12q-15 0 -25 2t-17.5 6.5t-14 11t-14.5 16.5l-291 400v-369q0 -67 -64 -67h-14v0z" />
    <glyph glyph-name="O" unicode="O" horiz-adv-x="737" 
d="M368 -13q-73 0 -134.5 24.5t-105.5 69t-68.5 106.5t-24.5 136t25 136t69.5 106.5t105.5 69.5t134 25q74 0 135 -25t105 -69.5t68.5 -106t24.5 -135.5t-24.5 -136t-69 -106.5t-105.5 -69.5t-135 -25zM369 118q42 0 76 14.5t59 41.5t38.5 65t13.5 84t-14 84t-38.5 65.5
t-59 42.5t-76.5 15t-76 -14.5t-58.5 -41.5t-38 -65t-13.5 -85q0 -46 13.5 -84t38.5 -65t59 -42t76 -15z" />
    <glyph glyph-name="P" unicode="P" horiz-adv-x="589" 
d="M301 321q62 0 93.5 27.5t31.5 78.5t-31.5 78t-93.5 27h-97v-211h97zM206 63q0 -32 -16 -49.5t-48 -17.5h-22q-29 0 -45.5 17t-16.5 50v502q0 39 20.5 60.5t56.5 21.5h168q130 0 198.5 -55.5t68.5 -163.5q0 -109 -67 -163.5t-199 -54.5h-98v-147z" />
    <glyph glyph-name="Q" unicode="Q" horiz-adv-x="737" 
d="M391 200q-9 10 -15 22t-7.5 24.5t2.5 24t14 20.5l6 6q21 17 45 10.5t44 -27.5q16 -18 29 -31q11 -11 20 -20.5t9 -10.5q22 47 22 105q0 45 -13.5 83t-38.5 66t-60 43.5t-77 15.5q-43 0 -77.5 -15.5t-59.5 -43t-38.5 -66t-13.5 -83.5t14 -83t39 -65.5t59.5 -42.5t75.5 -15
q46 0 85 17zM714 39q2 -2 -3.5 -10.5t-16 -17.5t-26.5 -16.5t-36 -7.5t-42.5 10.5t-46.5 38.5q-38 -23 -82 -36t-92 -13q-73 0 -134.5 24.5t-106 69t-69 106.5t-24.5 136t25 136t69.5 106.5t106 69.5t134.5 25q74 0 135 -24.5t104.5 -69t68 -106.5t24.5 -136
q0 -57 -17 -108.5t-49 -93.5z" />
    <glyph glyph-name="R" unicode="R" horiz-adv-x="616" 
d="M316 338q60 0 88.5 26t28.5 71q0 97 -120 97h-110v-194h113zM581 50q2 -3 -2 -11.5t-14.5 -18t-27.5 -17t-41 -7.5q-32 0 -53 14t-44 46l-138 174h-56v-167q0 -32 -16 -49.5t-48 -17.5h-21q-30 0 -46 21t-16 60v488q0 39 20.5 60.5t56.5 21.5h191q127 0 191 -51t64 -151
q0 -78 -42.5 -127.5t-125.5 -63.5z" />
    <glyph glyph-name="S" unicode="S" horiz-adv-x="569" 
d="M276 -13q-64 0 -111.5 12t-78 31t-45.5 42t-15 45q0 15 8 29t18 24.5t19 16.5t11 4q15 -18 35.5 -34t45.5 -28t53.5 -19.5t58.5 -7.5q58 0 88 20.5t30 58.5q0 22 -11.5 35.5t-30.5 22t-44.5 14.5t-54.5 12q-39 9 -76.5 22t-67.5 35t-48 55.5t-18 82.5q0 45 17.5 82
t50.5 63t79.5 40.5t104.5 14.5q59 0 102.5 -10.5t72.5 -27.5t43.5 -38t14.5 -42q0 -17 -9 -31.5t-19.5 -25t-20 -16t-10.5 -4.5q-29 34 -74.5 57t-97.5 23q-54 0 -83 -21t-29 -56q0 -21 10.5 -33.5t28.5 -20.5t43.5 -13t55.5 -12q44 -10 83.5 -24.5t69.5 -38t48 -56
t18 -78.5q0 -97 -68 -151t-197 -54z" />
    <glyph glyph-name="T" unicode="T" horiz-adv-x="605" 
d="M83 518q-68 0 -68 64v4q0 61 68 61h439q68 0 68 -61v-4q0 -64 -68 -64h-145v-455q0 -67 -65 -67h-21q-61 0 -61 67v455h-147z" />
    <glyph glyph-name="U" unicode="U" horiz-adv-x="663" 
d="M331 -11q-138 0 -208 71t-70 212v312q0 34 17 50.5t47 16.5h19q64 0 64 -67v-310q0 -157 132 -157q131 0 131 157v310q0 67 64 67h20q63 0 63 -67v-310q0 -141 -70.5 -213t-208.5 -72z" />
    <glyph glyph-name="V" unicode="V" horiz-adv-x="645" 
d="M467 583q11 37 33.5 52.5t46.5 15.5q18 0 34.5 -6t28.5 -14t18.5 -16t4.5 -13l-222 -552q-13 -29 -32.5 -42.5t-55.5 -13.5q-35 0 -54 12.5t-32 43.5l-226 552q-2 5 5 13t20 16t30 14t35 6q28 0 50 -17.5t32 -50.5l143 -418z" />
    <glyph glyph-name="W" unicode="W" horiz-adv-x="951" 
d="M282 -6q-39 0 -60.5 12t-29.5 45l-152 553q-1 3 4.5 10.5t17 15.5t28.5 14t40 6q25 0 49 -17t33 -64l82 -387l98 338q15 59 88 59q69 0 85 -59l97 -336l83 387q8 44 30.5 62t49.5 18q22 0 38.5 -6.5t27 -14.5t16 -15.5t4.5 -10.5l-149 -553q-8 -32 -30 -44.5t-61 -12.5
q-38 0 -59.5 12.5t-31.5 44.5l-102 350l-106 -350q-8 -32 -30 -44.5t-60 -12.5z" />
    <glyph glyph-name="X" unicode="X" horiz-adv-x="636" 
d="M320 407l129 193q16 27 36.5 39.5t40.5 12.5q19 0 36 -7.5t29.5 -17t19 -19t4.5 -13.5l-198 -272l198 -271q2 -4 -4.5 -13t-19.5 -19t-30.5 -17.5t-37.5 -7.5q-21 0 -42.5 11.5t-37.5 39.5l-128 195l-130 -196q-17 -29 -37.5 -40.5t-40.5 -11.5q-19 0 -36 7.5t-29 17.5
t-18.5 19t-4.5 13l199 274l-195 269q-2 4 4.5 13.5t19.5 19.5t31 17.5t38 7.5q23 0 43 -12t36 -40z" />
    <glyph glyph-name="Y" unicode="Y" horiz-adv-x="603" 
d="M376 63q0 -67 -65 -67h-20q-63 0 -63 67v197l-226 334q-2 3 2.5 12.5t15.5 19t30 17.5t46 8q20 0 38 -12.5t32 -38.5l136 -222l138 221q17 29 35 40.5t36 11.5q25 0 42.5 -8t29 -18t16 -19t2.5 -12l-225 -334v-197z" />
    <glyph glyph-name="Z" unicode="Z" horiz-adv-x="614" 
d="M123 0q-45 0 -64 19t-19 43v10q0 16 3 28t9 23t15 22t21 26l296 352h-274q-32 0 -48.5 13.5t-16.5 44.5v7q0 59 65 59h378q45 0 64 -19t19 -43v-9q0 -32 -13 -52.5t-34 -44.5l-301 -355h293q32 0 49 -13.5t17 -44.5v-7q0 -59 -66 -59h-393v0z" />
    <glyph glyph-name="bracketleft" unicode="[" horiz-adv-x="373" 
d="M136 -198q-36 0 -56.5 21t-20.5 60v689q0 39 20.5 60.5t56.5 21.5h152q36 0 52 -12.5t16 -41.5v-6q0 -30 -16 -43t-52 -13h-98v-622h100q36 0 52 -12t16 -41v-6q0 -29 -16 -42t-52 -13h-154v0z" />
    <glyph glyph-name="backslash" unicode="\" horiz-adv-x="359" 
d="M289 -209q-12 0 -21 1.5t-9 3.5l-241 763q-8 29 -8 42q0 18 7 29t18 17t23.5 8t23.5 2q12 0 21 -1.5t9 -3.5l241 -763q8 -27 8 -42q0 -18 -7 -29t-18 -17t-23.5 -8t-23.5 -2z" />
    <glyph glyph-name="bracketright" unicode="]" horiz-adv-x="373" 
d="M83 -198q-36 0 -52 13t-16 42v6q0 29 16 41t52 12h100v622h-98q-36 0 -52 13t-16 43v6q0 29 16 41.5t52 12.5h152q36 0 56.5 -21.5t20.5 -60.5v-689q0 -39 -20.5 -60t-56.5 -21h-154v0z" />
    <glyph glyph-name="asciicircum" unicode="^" 
d="M250 542q-59 -101 -106 -101q-20 0 -33 12t-13 32q0 23 18.5 48t43 47t50 37.5t40.5 19.5q15 -4 40 -19.5t50 -37.5t43 -47t18 -48q0 -20 -12.5 -32t-32.5 -12q-49 0 -106 101z" />
    <glyph glyph-name="underscore" unicode="_" horiz-adv-x="496" 
d="M68 -108q-29 0 -43 14t-14 37v6q0 23 14 37t43 14h359q29 0 43.5 -14t14.5 -37v-6q0 -23 -14.5 -37t-43.5 -14h-359v0z" />
    <glyph glyph-name="grave" unicode="`" 
d="M147 594q-23 14 -36 34.5t-13 41.5q0 23 18.5 39t45.5 16q24 0 50 -17q25 -15 47 -38.5t38 -46t24.5 -40.5t5.5 -23q-3 -4 -20.5 -6t-43 1t-56.5 12t-60 27z" />
    <glyph glyph-name="a" unicode="a" horiz-adv-x="546" 
d="M239 81q53 0 86 31t33 79v28l-26 -1q-84 -2 -126.5 -20t-42.5 -58q0 -27 20.5 -43t55.5 -16zM358 296q0 97 -100 97q-51 0 -79 -23t-42 -52q0 -1 -14 -0.5t-31.5 5.5t-31.5 18t-14 37q0 23 13.5 44.5t41 38.5t69 27.5t97.5 10.5q116 0 173 -51t57 -150v-289
q0 -5 -16.5 -10.5t-36.5 -5.5q-33 0 -55 18.5t-28 59.5q-26 -38 -70 -60t-99 -22q-77 0 -120.5 39t-43.5 102q0 85 76.5 124.5t237.5 41.5h16v0z" />
    <glyph glyph-name="b" unicode="b" horiz-adv-x="605" 
d="M194 216q0 -26 9.5 -47.5t26 -37t39 -24t47.5 -8.5q57 0 91.5 39.5t34.5 103.5q0 65 -34.5 104.5t-90.5 39.5q-45 0 -76 -21.5t-47 -58.5v-90zM194 63q0 -38 -17.5 -52.5t-44.5 -14.5h-15q-29 0 -46.5 14t-17.5 53v616q0 4 16 10t37 6q16 0 31.5 -5t28 -17.5t20.5 -34.5
t8 -56v-163q26 37 66 58.5t92 21.5q50 0 91.5 -18t71.5 -51t46.5 -80t16.5 -106q0 -57 -16.5 -104.5t-46.5 -81t-72 -52.5t-93 -19q-56 0 -96 24.5t-60 59.5v-8z" />
    <glyph glyph-name="c" unicode="c" horiz-adv-x="514" 
d="M284 -13q-57 0 -104 19t-81 53t-53 81t-19 103t19 103t53.5 80.5t81.5 52.5t103 19t95.5 -14t64.5 -34.5t36.5 -43.5t11.5 -40q0 -21 -12 -34t-26 -20t-26.5 -8.5t-13.5 0.5q-14 35 -43 58t-81 23q-29 0 -53.5 -10.5t-42 -29.5t-27.5 -45t-10 -57t10 -57.5t27.5 -45.5
t42 -29.5t53.5 -10.5q51 0 80.5 23t43.5 58q1 2 13 1t26.5 -8t26.5 -20t12 -36q0 -17 -12 -39.5t-37.5 -43t-64.5 -34.5t-94 -14z" />
    <glyph glyph-name="d" unicode="d" horiz-adv-x="605" 
d="M411 308q-15 36 -45.5 57t-75.5 21q-58 0 -92.5 -39t-34.5 -105q0 -31 9.5 -57.5t26 -45.5t39.5 -29.5t50 -10.5q25 0 47.5 8.5t39 23.5t26.5 36.5t10 47.5v93zM411 679q0 4 16 10t37 6q16 0 31.5 -5t28 -17.5t20.5 -34.5t8 -56v-519q0 -38 -17.5 -52.5t-44.5 -14.5h-15
q-29 0 -46.5 14t-17.5 53v16q-23 -42 -63.5 -67t-94.5 -25q-49 0 -90.5 18.5t-71.5 52t-47 81t-17 104.5q0 58 16.5 105.5t46.5 81t72 51.5t93 18q54 0 94.5 -21t61.5 -53v254z" />
    <glyph glyph-name="e" unicode="e" horiz-adv-x="550" 
d="M394 288q-2 51 -32.5 82t-81.5 31q-50 0 -84 -31.5t-41 -81.5h239zM155 206q8 -55 46 -85.5t95 -30.5q56 0 88.5 21.5t49.5 50.5q0 1 11 -1t23.5 -9t23 -20t10.5 -34q0 -19 -14 -39t-40.5 -36t-66 -26t-90.5 -10q-60 0 -108.5 18t-83 51t-53.5 79.5t-19 104.5
q0 56 19 103.5t53 82t81 54t102 19.5q54 0 98.5 -18t77 -50.5t50 -77t17.5 -98.5v-10q-1 -19 -7.5 -29t-26.5 -10h-336v0z" />
    <glyph glyph-name="f" unicode="f" horiz-adv-x="381" 
d="M65 378q-59 0 -59 52v8q0 50 59 50h40v26q0 51 12 86.5t34 58t53.5 32.5t69.5 10q65 0 94.5 -23.5t29.5 -53.5q0 -13 -4.5 -24t-10 -18.5t-10 -11.5t-5.5 -3q-11 10 -28.5 18t-38.5 8q-31 0 -45.5 -18.5t-14.5 -60.5v-26h63q59 0 59 -52v-9q0 -49 -59 -49h-58v-315
q0 -39 -17 -53t-46 -14h-15q-27 0 -45 14.5t-18 52.5v315h-40z" />
    <glyph glyph-name="g" unicode="g" horiz-adv-x="512" 
d="M251 0q-53 -4 -87.5 -21t-34.5 -46q0 -26 30 -40.5t91 -14.5t93.5 15.5t32.5 44.5q0 15 -10.5 24.5t-28 16t-40 11.5t-46.5 10zM252 224q42 0 67.5 25t25.5 67q0 41 -26 66t-68 25q-41 0 -66.5 -24.5t-25.5 -66.5t26 -67t67 -25zM378 517q14 26 30.5 37.5t39.5 11.5
q19 0 32.5 -9t22 -20t12 -20.5t2.5 -10.5l-42 -40q-16 -15 -29 -28t-14 -13q21 -22 32.5 -49.5t11.5 -59.5q0 -39 -15.5 -71t-45 -55.5t-70.5 -36t-92 -12.5h-7q-2 -6 -2 -10q0 -20 33 -27.5t93 -22.5q26 -7 51 -18t45 -27.5t32.5 -39t12.5 -53.5q0 -71 -69 -112.5
t-195 -41.5q-131 0 -191.5 33t-60.5 103q0 51 43 84t110 42q-18 17 -18 45q0 17 9.5 32t23.5 25q-63 18 -98.5 60.5t-35.5 100.5q0 39 16.5 73t46 58.5t70.5 38.5t89 14q58 0 106 -21z" />
    <glyph glyph-name="h" unicode="h" horiz-adv-x="581" 
d="M194 411q23 38 61.5 63t95.5 25q48 0 82.5 -16t56.5 -44t32.5 -65.5t10.5 -80.5v-230q0 -38 -17.5 -52.5t-44.5 -14.5h-15q-29 0 -46.5 14t-17.5 53v210q0 51 -24 79.5t-66 28.5q-50 0 -79 -30.5t-29 -83.5v-204q0 -38 -17.5 -52.5t-44.5 -14.5h-15q-29 0 -46.5 14
t-17.5 53v616q0 4 16 10t37 6q16 0 31.5 -5t28 -17.5t20.5 -34.5t8 -56v-171v0z" />
    <glyph glyph-name="i" unicode="i" horiz-adv-x="255" 
d="M128 569q-37 0 -58 19t-21 53q0 33 21 52t58 19t57.5 -18.5t20.5 -52.5t-20.5 -53t-57.5 -19zM121 -4q-28 0 -46 14t-18 53v362q0 38 18 53t45 15h15q29 0 46 -14.5t17 -53.5v-362q0 -38 -17.5 -52.5t-44.5 -14.5h-15v0z" />
    <glyph glyph-name="j" unicode="j" horiz-adv-x="255" 
d="M128 569q-37 0 -58 19t-21 53q0 33 21 52t58 19t57.5 -18.5t20.5 -52.5t-20.5 -53t-57.5 -19zM37 -200q-56 0 -86.5 21t-30.5 58q0 13 4 24t9.5 18.5t10 12t5.5 3.5q10 -11 24.5 -18t32.5 -7q51 0 51 62v451q0 38 18 53t45 15h15q29 0 46 -14.5t17 -53.5v-458
q0 -81 -41.5 -124t-119.5 -43z" />
    <glyph glyph-name="k" unicode="k" horiz-adv-x="514" 
d="M194 63q0 -38 -17.5 -52.5t-44.5 -14.5h-15q-29 0 -46.5 14t-17.5 53v616q0 4 16 10t37 6q16 0 31.5 -5t28 -17.5t20.5 -34.5t8 -56v-306l137 173q17 25 38 35t39 10q17 0 31.5 -6.5t25 -15t16 -16t3.5 -10.5l-153 -191l173 -213q2 -3 -4 -10.5t-16.5 -16t-25 -15
t-31.5 -6.5q-20 0 -40.5 9.5t-39.5 35.5l-153 186v-162z" />
    <glyph glyph-name="l" unicode="l" horiz-adv-x="255" 
d="M121 -4q-28 0 -46 14t-18 53v616q0 4 16 10t37 6q16 0 31.5 -5t28 -17.5t20.5 -34.5t8 -56v-519q0 -38 -17.5 -52.5t-44.5 -14.5h-15v0z" />
    <glyph glyph-name="m" unicode="m" horiz-adv-x="887" 
d="M191 415q25 37 61.5 60.5t89.5 23.5q61 0 100 -26.5t56 -73.5q25 42 64.5 71t100.5 29q47 0 80 -14t54.5 -39.5t31.5 -61.5t10 -79v-242q0 -38 -17.5 -52.5t-45.5 -14.5h-14q-29 0 -46.5 14t-17.5 53v219q0 99 -85 99q-31 0 -56.5 -17t-40.5 -43v-258q0 -38 -17.5 -52.5
t-44.5 -14.5h-15q-28 0 -46 14t-18 53v216q0 102 -84 102q-31 0 -56.5 -17t-40.5 -43v-258q0 -38 -17.5 -52.5t-44.5 -14.5h-15q-29 0 -46.5 14t-17.5 53v414q0 3 16 9.5t37 6.5q14 0 27.5 -3.5t25 -12.5t20 -24t12.5 -38z" />
    <glyph glyph-name="n" unicode="n" horiz-adv-x="581" 
d="M192 413q26 38 64 62t95 24q48 0 82.5 -16t56.5 -43t32.5 -64t10.5 -79v-234q0 -38 -17.5 -52.5t-44.5 -14.5h-15q-29 0 -46.5 14t-17.5 53v213q0 49 -23.5 77t-66.5 28q-38 0 -65.5 -17.5t-42.5 -46.5v-254q0 -38 -17.5 -52.5t-44.5 -14.5h-15q-29 0 -46.5 14t-17.5 53
v414q0 3 16 9.5t37 6.5q14 0 27.5 -3.5t25.5 -12.5t20.5 -24.5t12.5 -39.5z" />
    <glyph glyph-name="o" unicode="o" horiz-adv-x="576" 
d="M287 -13q-58 0 -106 18.5t-82 52t-53 81t-19 104.5t19 104t53.5 80.5t83 52.5t106.5 19t105.5 -19t81.5 -52.5t53 -81t19 -104.5t-19 -104t-53 -80.5t-82 -52t-107 -18.5zM288 98q29 0 54 11t43 30t28.5 45.5t10.5 57.5q0 32 -10 59t-28 46.5t-43 30.5t-55 11t-55 -11
t-43 -30.5t-28.5 -46t-10.5 -58.5q0 -31 10.5 -58t28.5 -46t43 -30t55 -11z" />
    <glyph glyph-name="p" unicode="p" horiz-adv-x="605" 
d="M194 216q0 -26 9.5 -47.5t26 -37t39 -24t47.5 -8.5q57 0 91.5 39.5t34.5 103.5q0 65 -34.5 104.5t-90.5 39.5q-45 0 -76 -21.5t-47 -57.5v-91zM194 -127q0 -38 -17.5 -53t-44.5 -15h-15q-29 0 -46.5 14.5t-17.5 53.5v604q0 3 16 9.5t37 6.5q14 0 28 -3.5t26 -13.5
t20.5 -26t11.5 -42q24 42 64 66.5t96 24.5q50 0 91.5 -18t71.5 -51t46.5 -80t16.5 -106q0 -57 -16.5 -104.5t-46.5 -81t-72 -52.5t-93 -19q-56 0 -96 26t-60 63v-203z" />
    <glyph glyph-name="q" unicode="q" horiz-adv-x="605" 
d="M411 307q-15 36 -45.5 57.5t-75.5 21.5q-58 0 -92.5 -39t-34.5 -105q0 -31 9.5 -57.5t26 -45.5t39.5 -29.5t50 -10.5q25 0 47.5 8.5t39 24t26.5 37t10 47.5v91zM414 419q5 22 13.5 36.5t20 22.5t25 11.5t26.5 3.5q21 0 37 -6.5t16 -9.5v-604q0 -39 -17.5 -53.5
t-46.5 -14.5h-15q-27 0 -44.5 15t-17.5 53v206q-23 -42 -63.5 -67t-94.5 -25q-49 0 -90.5 18.5t-71.5 52t-47 81t-17 104.5q0 58 16.5 105.5t46.5 81t72 51.5t93 18q56 0 97.5 -23t61.5 -57z" />
    <glyph glyph-name="r" unicode="r" horiz-adv-x="415" 
d="M192 410q15 42 44.5 65.5t74.5 23.5q43 0 67 -22t24 -60q0 -21 -6.5 -35.5t-15 -23.5t-15.5 -12.5t-8 -2.5q-11 11 -27.5 17.5t-36.5 6.5q-52 0 -75.5 -42t-23.5 -116v-146q0 -38 -17.5 -52.5t-44.5 -14.5h-15q-29 0 -46.5 14t-17.5 53v414q0 3 16 9.5t37 6.5
q14 0 28 -3.5t25.5 -13t20.5 -25.5t12 -41z" />
    <glyph glyph-name="s" unicode="s" horiz-adv-x="476" 
d="M232 -11q-107 0 -159.5 32t-52.5 74q0 14 6.5 25t14 18.5t14.5 11.5t8 3q26 -27 66.5 -46t94.5 -19q42 0 64 12t22 35q0 14 -7 22.5t-20.5 14.5t-33 10.5t-44.5 9.5q-25 6 -55 14t-56 24t-43.5 42t-17.5 68q0 36 14.5 65t41 49.5t64.5 32t84 11.5q99 0 148 -31t49 -73
q0 -14 -6.5 -25.5t-15 -19.5t-15.5 -12t-8 -3q-25 29 -62.5 47t-80.5 18q-40 0 -61.5 -12.5t-21.5 -35.5q0 -13 7 -21.5t20.5 -14t32.5 -10t44 -9.5q26 -6 57.5 -14t58.5 -24.5t45.5 -42.5t18.5 -68q0 -74 -57 -116t-158 -42z" />
    <glyph glyph-name="t" unicode="t" horiz-adv-x="402" 
d="M73 378q-59 0 -59 49v9q0 52 59 52h24v62q0 35 17 51.5t47 16.5h12q29 0 46 -14.5t17 -53.5v-62h85q30 0 43.5 -12.5t13.5 -37.5v-8q0 -52 -59 -52h-86v-208q0 -36 12.5 -54t41.5 -18q22 0 37 9.5t26 23.5q1 1 6.5 -2t11.5 -10t11 -17.5t5 -25.5q0 -37 -34.5 -63
t-94.5 -26q-81 0 -119.5 42t-38.5 125v224h-24z" />
    <glyph glyph-name="u" unicode="u" horiz-adv-x="581" 
d="M391 73q-26 -38 -65 -62t-96 -24q-48 0 -82.5 15.5t-56 43t-32 64.5t-10.5 79v236q0 38 17.5 53t44.5 15h15q28 0 46 -14.5t18 -53.5v-215q0 -49 23.5 -77t68.5 -28q35 0 62.5 17.5t42.5 46.5v256q0 38 17.5 53t45.5 15h14q29 0 46.5 -14.5t17.5 -53.5v-413
q0 -4 -15.5 -10t-37.5 -6q-13 0 -26.5 3.5t-25 12t-20 23.5t-12.5 38z" />
    <glyph glyph-name="v" unicode="v" horiz-adv-x="531" 
d="M266 129l102 293q14 42 34 56.5t43 14.5q16 0 30.5 -5.5t25 -12t16 -13.5t4.5 -10l-175 -421q-9 -22 -32 -29.5t-47 -7.5q-26 0 -48 7t-31 29l-177 422q-1 3 5 10t16.5 13.5t24.5 12t30 5.5q26 0 46 -14.5t34 -56.5z" />
    <glyph glyph-name="w" unicode="w" horiz-adv-x="755" 
d="M218 -6q-26 0 -47 8t-29 33l-127 417q-1 3 7 10t20.5 14t28 12t30.5 5q20 0 40.5 -12.5t26.5 -48.5l61 -291l78 253q7 23 26.5 34.5t49.5 11.5q62 0 74 -46l74 -248l60 286q6 35 25.5 48t39.5 13q15 0 30.5 -5.5t27.5 -12t19 -13.5t6 -10l-124 -417q-7 -25 -28 -33
t-47 -8q-38 0 -55 9t-27 38l-79 247l-81 -247q-8 -29 -26 -38t-54 -9z" />
    <glyph glyph-name="x" unicode="x" horiz-adv-x="519" 
d="M258 175l-82 -130q-28 -51 -78 -51q-18 0 -33 6.5t-26 15t-16.5 16t-3.5 9.5l149 203l-148 203q-1 3 4.5 10.5t16 15.5t25.5 14.5t32 6.5q25 0 45 -12t34 -39l83 -130l83 130q15 28 35.5 39.5t40.5 11.5q18 0 34 -6.5t27 -14.5t16.5 -15.5t3.5 -10.5l-149 -204l147 -202
q2 -3 -3.5 -10.5t-16.5 -15.5t-26.5 -14.5t-34.5 -6.5q-49 0 -76 51z" />
    <glyph glyph-name="y" unicode="y" horiz-adv-x="531" 
d="M219 -192q-15 0 -29.5 5t-25 12t-16 13t-4.5 9l81 184q-17 2 -28 9t-18 22l-168 390q-1 3 5 10t16.5 13.5t25 12t30.5 5.5q25 0 45 -14t34 -56l106 -279l94 278q13 42 34 56.5t44 14.5q15 0 29 -5t25 -12t17 -13t5 -9l-222 -577q-16 -40 -36.5 -54.5t-43.5 -14.5z" />
    <glyph glyph-name="z" unicode="z" horiz-adv-x="494" 
d="M83 0q-29 0 -41 15.5t-12 34.5v8q0 24 7.5 36t23.5 31l218 254h-189q-57 0 -57 51v7q0 51 57 51h314q29 0 41.5 -15t12.5 -34v-7q0 -23 -7 -35t-24 -30l-224 -258h207q57 0 57 -51v-6q0 -52 -57 -52h-327v0z" />
    <glyph glyph-name="braceleft" unicode="{" horiz-adv-x="462" 
d="M376 -199q-38 0 -77.5 17t-73 53t-57.5 93.5t-31 138.5l-42 22q-22 12 -36.5 21.5t-23 20.5t-11.5 25.5t-3 35.5t3.5 36t12.5 26t23 20.5t35 20.5l43 23q7 81 30.5 138.5t57 93.5t73 53t77.5 17q32 0 52 -16.5t20 -45.5q0 -20 -10 -32.5t-14 -13.5q-43 -6 -72 -24
t-47 -49.5t-27 -76.5t-11 -104l-119 -66l118 -66q3 -59 11.5 -104t27 -76.5t47.5 -49.5t72 -24q3 0 13.5 -13t10.5 -33q0 -29 -20.5 -45t-51.5 -16z" />
    <glyph glyph-name="bar" unicode="|" horiz-adv-x="271" 
d="M129 -198q-28 0 -46 14t-18 54v718q0 38 18 53t45 15h15q29 0 46 -14.5t17 -53.5v-718q0 -38 -17.5 -53t-44.5 -15h-15v0z" />
    <glyph glyph-name="braceright" unicode="}" horiz-adv-x="462" 
d="M86 -199q-32 0 -52 16t-20 45q0 20 10.5 33t13.5 13q43 6 72 24t47 49.5t27 76.5t11 104l118 66l-118 66q-4 119 -38 181t-120 73q-3 1 -13 13.5t-10 32.5q0 29 20 45.5t51 16.5q38 0 77.5 -17t73 -53t57.5 -93.5t31 -138.5l42 -23q21 -11 35 -20.5t23 -20.5t13 -26
t4 -36t-3.5 -35.5t-11.5 -25.5t-22.5 -20.5t-37.5 -21.5l-42 -22q-7 -81 -30.5 -138.5t-57 -93.5t-73 -53t-77.5 -17z" />
    <glyph glyph-name="asciitilde" unicode="~" horiz-adv-x="499" 
d="M130 160q-21 0 -34 14t-13 34q0 22 7 41t19.5 32.5t28.5 21.5t34 8q32 0 68 -17.5t72 -51.5q8 26 22.5 45.5t34.5 19.5q22 0 34.5 -14t12.5 -34q0 -22 -7 -41t-19.5 -32.5t-28.5 -21t-34 -7.5q-32 0 -68 17t-72 51q-8 -26 -22.5 -45.5t-34.5 -19.5z" />
    <glyph glyph-name="nonbreakingspace" unicode="&#xa0;" horiz-adv-x="170" 
 />
    <glyph glyph-name="exclamdown" unicode="&#xa1;" horiz-adv-x="277" 
d="M130 508q-68 0 -68 67v14q0 66 68 66h18q66 0 66 -66v-14q0 -67 -66 -67h-18v0zM127 -8q-40 0 -60.5 23t-11.5 65l40 321q5 23 13 34.5t24 11.5h14q15 0 22.5 -11.5t12.5 -34.5l40 -321q9 -42 -11 -65t-58 -23h-25v0z" />
    <glyph glyph-name="cent" unicode="&#xa2;" horiz-adv-x="529" 
d="M349 541q40 -5 69.5 -17t49.5 -28t30 -35t10 -38q0 -20 -11 -33.5t-25 -21t-25.5 -10t-13.5 -0.5q-22 38 -52 56t-81 18q-62 0 -100.5 -40t-38.5 -109q0 -70 40.5 -110t105.5 -40q48 0 79 19.5t51 59.5q2 2 14 0t25.5 -9t25 -20t11.5 -33q0 -42 -41 -78.5t-121 -47.5v-57
q0 -68 -58 -68h-4q-32 0 -45 16t-13 52v60q-95 18 -150 84t-55 171q0 50 14.5 92.5t41.5 75.5t64.5 55.5t83.5 31.5v58q0 35 13.5 51.5t43.5 16.5h5q31 0 44 -16.5t13 -51.5v-54v0z" />
    <glyph glyph-name="sterling" unicode="&#xa3;" horiz-adv-x="599" 
d="M232 115h272q34 0 49 -12.5t15 -40.5v-7q0 -29 -15 -42t-49 -13h-424q-33 0 -48.5 13t-15.5 42v7q0 53 64 53h24l25 134h-41q-23 0 -36.5 12.5t-13.5 33.5v12q0 22 13.5 34.5t36.5 12.5h60l20 109q17 97 72.5 147t146.5 50q45 0 80 -11t58.5 -29.5t36 -42.5t12.5 -51
q0 -28 -12.5 -42.5t-28 -20.5t-28.5 -6.5t-13 0.5q-8 42 -31.5 65.5t-68.5 23.5t-67.5 -23.5t-32.5 -76.5l-17 -92h132q23 0 36.5 -12.5t13.5 -34.5v-12q0 -22 -13.5 -34t-36.5 -12h-151z" />
    <glyph glyph-name="currency" unicode="&#xa4;" horiz-adv-x="631" 
d="M73 353q-26 0 -38 11.5t-12 28.5v10q0 17 12 28t38 11h44q23 103 94.5 160.5t177.5 57.5q50 0 90 -11.5t67.5 -29.5t42 -41.5t14.5 -47.5q0 -19 -10 -33.5t-23 -23t-23.5 -12t-12.5 -1.5q-27 39 -59.5 59.5t-85.5 20.5q-48 0 -81.5 -25t-49.5 -73h159q26 0 38 -11t12 -28
v-10q0 -17 -12 -28.5t-38 -11.5h-171v-58h171q26 0 38 -11t12 -28v-10q0 -17 -12 -28t-38 -11h-159q16 -48 51 -74t84 -26q53 0 85 22t57 63q2 2 13.5 -1t24 -12t23 -23t10.5 -34q0 -21 -13 -45t-39.5 -44t-67 -33t-94.5 -13q-109 0 -181.5 57.5t-94.5 162.5h-43
q-26 0 -38 11t-12 28v10q0 17 12 28t38 11h35v58h-35z" />
    <glyph glyph-name="yen" unicode="&#xa5;" horiz-adv-x="614" 
d="M101 255q-28 0 -40.5 12t-12.5 30v11q0 17 12.5 29.5t40.5 12.5h97l-6.5 10.5t-17.5 27.5t-25 39t-29 44l-78 120q-2 3 1.5 13t13 20.5t27 19t43.5 8.5q23 0 40 -12t30 -39l111 -209l114 209q15 29 32.5 40.5t39.5 11.5q23 0 38.5 -8.5t24.5 -19.5t13 -21t2 -13
l-156 -241h96q29 0 41.5 -12.5t12.5 -29.5v-11q0 -18 -12.5 -30t-41.5 -12h-139v-53h139q29 0 41.5 -12t12.5 -30v-11q0 -17 -12.5 -29.5t-41.5 -12.5h-139v-46q0 -34 -13.5 -51t-45.5 -17h-15q-31 0 -44 17t-13 51v46h-141q-28 0 -40.5 12.5t-12.5 29.5v11q0 18 12.5 30
t40.5 12h141v53h-141z" />
    <glyph glyph-name="section" unicode="&#xa7;" horiz-adv-x="569" 
d="M135 358q-36 17 -58.5 46t-22.5 78q0 40 17 73t47.5 56t74 36t96.5 13q61 0 102 -11.5t66.5 -29t36.5 -37.5t11 -37q0 -15 -7.5 -27.5t-16.5 -21t-17 -12.5t-10 -3q-30 35 -70 55.5t-88 20.5q-45 0 -73.5 -15.5t-28.5 -45.5q0 -31 38.5 -47t102.5 -31q36 -9 72.5 -20
t66 -29.5t48 -46t18.5 -68.5q0 -47 -26.5 -80.5t-76.5 -52.5q35 -17 57.5 -46.5t22.5 -79.5q0 -40 -17 -72.5t-49 -56t-78 -36t-103 -12.5q-61 0 -106 11t-73.5 28.5t-42.5 39.5t-14 45q0 14 7 26t16 20t16.5 12.5t8.5 2.5q15 -18 36 -33t45.5 -25.5t52 -16t55.5 -5.5
q107 0 107 60q0 17 -9 28t-26.5 18.5t-41.5 13.5t-54 13q-36 8 -74.5 19t-70.5 30t-52.5 47.5t-20.5 71.5q0 48 27.5 81.5t78.5 52.5zM333 153q39 8 61.5 30t22.5 48q0 22 -13 36.5t-35.5 24t-52 16.5t-62.5 14q-2 1 -4 1t-4 1q-44 -8 -69 -30.5t-25 -48.5q0 -22 14 -36
t37.5 -24t54 -16.5t64.5 -13.5q3 -1 5.5 -1.5t5.5 -0.5z" />
    <glyph glyph-name="dieresis" unicode="&#xa8;" 
d="M353 544q-35 0 -54.5 18.5t-19.5 53.5t19.5 53.5t51.5 18.5q34 0 54 -18.5t20 -53.5t-19.5 -53.5t-51.5 -18.5zM150 544q-34 0 -54 18.5t-20 53.5t19.5 53.5t51.5 18.5q35 0 54.5 -18.5t19.5 -53.5t-19.5 -53.5t-51.5 -18.5z" />
    <glyph glyph-name="copyright" unicode="&#xa9;" horiz-adv-x="746" 
d="M373 -13q-74 0 -135 25t-105 69.5t-68.5 106.5t-24.5 135t25 134.5t69 106.5t105.5 70.5t134.5 25.5q74 0 135 -25t105 -69.5t68.5 -106t24.5 -134.5t-25 -135t-69 -107t-105.5 -70.5t-134.5 -25.5zM374 46q60 0 109.5 20.5t85 57.5t55 87.5t19.5 111.5q0 60 -20 111
t-56 88t-85.5 58t-108.5 21q-60 0 -110 -20.5t-85 -57t-54.5 -87.5t-19.5 -112q0 -60 20 -111t56 -88t85.5 -58t108.5 -21zM383 140q-40 0 -74 13.5t-58.5 37.5t-38 57.5t-13.5 73.5q0 39 14 72.5t38.5 58t58 38t72.5 13.5q44 0 73 -13.5t43 -27.5q9 -9 14 -18.5t4 -22.5
q0 -12 -7 -21.5t-16 -15.5t-16.5 -8.5t-8.5 -1.5q-30 43 -83 43q-37 0 -63.5 -26.5t-26.5 -68.5q0 -43 27 -69.5t65 -26.5q29 0 49.5 11.5t34.5 34.5q1 2 8.5 -0.5t16.5 -8.5t16 -16t7 -23q1 -22 -21 -44q-14 -14 -42.5 -27.5t-72.5 -13.5z" />
    <glyph glyph-name="ordfeminine" unicode="&#xaa;" horiz-adv-x="444" 
d="M162 252q-64 0 -101 30t-37 81q0 30 11.5 53.5t40.5 40t80 26t129 12.5q-1 37 -19.5 57t-59.5 20q-38 0 -59.5 -19.5t-33.5 -40.5q0 -1 -11.5 -1t-25.5 4.5t-25.5 15t-11.5 29.5q0 18 10.5 36t32 32.5t54.5 23t78 8.5q97 0 141.5 -42.5t44.5 -123.5v-226q0 -5 -13.5 -9
t-30.5 -4q-25 0 -42.5 13.5t-23.5 47.5q-19 -30 -53 -47t-75 -17zM208 -8q-60 0 -60 60v12q0 60 60 60h16q61 0 61 -60v-12q0 -60 -61 -60h-16v0zM201 329q37 0 61 22.5t24 52.5v32q-45 -2 -74 -7t-46 -12.5t-24 -18t-7 -24.5q0 -21 18 -33t48 -12z" />
    <glyph glyph-name="guillemotleft" unicode="&#xab;" horiz-adv-x="533" 
d="M361 245q22 -14 46 -30t44 -33t33 -33.5t13 -30.5v-4q0 -21 -13 -35.5t-38 -14.5h-2q-18 0 -39.5 12t-42.5 31t-41 41t-35 42.5t-24 35.5t-9 19t9 19t24 35.5t35 42.5t41 41t42.5 31t39.5 12h2q25 0 38 -14t13 -36v-3q0 -15 -13 -31.5t-33 -33.5t-44 -33t-46 -30z
M136 245q20 -12 41.5 -26.5t39 -29.5t29 -30t11.5 -29v-2q0 -20 -11.5 -33t-34.5 -13h-2q-25 0 -55.5 23t-57.5 52.5t-45 55.5t-18 32t18 32t45 55.5t57.5 52.5t55.5 23h2q23 0 34.5 -13t11.5 -33v-2q0 -13 -11.5 -28.5t-29 -30.5t-39 -29.5t-41.5 -26.5z" />
    <glyph glyph-name="logicalnot" unicode="&#xac;" horiz-adv-x="722" 
d="M412 236q-35 0 -51.5 11.5t-16.5 41.5v6q0 32 16.5 42.5t51.5 10.5h227q31 0 39.5 -13.5t8.5 -45.5v-9q0 -64 -22.5 -118t-63 -93t-96.5 -60.5t-124 -21.5q-78 0 -141.5 24.5t-108.5 69t-69.5 106.5t-24.5 136t25 136t70 106.5t108 69.5t139 25q60 0 106 -12.5t77.5 -33
t48 -45.5t16.5 -50q0 -20 -11 -34t-24.5 -23t-25 -12.5t-13.5 -1.5q-28 42 -73 64t-94 22q-43 0 -79.5 -15t-63 -43.5t-41.5 -68t-15 -89.5q0 -49 14.5 -88t40.5 -67t61.5 -43t77.5 -15q65 0 109 34.5t49 96.5h-127z" />
    <glyph glyph-name="registered" unicode="&#xae;" horiz-adv-x="746" 
d="M382 336q28 0 42.5 12t14.5 33q0 46 -59 46h-57v-91h59zM373 -13q-74 0 -135 25t-105 69.5t-68.5 106.5t-24.5 135t25 134.5t69 106.5t105.5 70.5t134.5 25.5q74 0 135 -25t105 -69.5t68.5 -106t24.5 -134.5t-25 -135t-69 -107t-105.5 -70.5t-134.5 -25.5zM374 46
q60 0 109.5 20.5t85 57.5t55 87.5t19.5 111.5q0 60 -20 111t-56 88t-85.5 58t-108.5 21q-60 0 -110 -20.5t-85 -57t-54.5 -87.5t-19.5 -112q0 -60 20 -111t56 -88t85.5 -58t108.5 -21zM531 179q2 -2 -2 -7.5t-11.5 -11.5t-18 -10.5t-22.5 -4.5q-13 0 -28 7.5t-27 27.5
l-61 87h-36v-77q0 -43 -41 -43h-13q-20 0 -30 14t-10 39v248q0 52 49 52h107q72 0 109 -28t37 -85q0 -40 -21 -66.5t-61 -36.5z" />
    <glyph glyph-name="macron" unicode="&#xaf;" 
d="M138 555q-29 0 -45.5 13t-16.5 38v6q0 24 16.5 37t45.5 13h224q29 0 45.5 -13t16.5 -37v-6q0 -25 -16.5 -38t-45.5 -13h-224v0z" />
    <glyph glyph-name="macron" unicode="&#x2c9;" 
d="M138 555q-29 0 -45.5 13t-16.5 38v6q0 24 16.5 37t45.5 13h224q29 0 45.5 -13t16.5 -37v-6q0 -25 -16.5 -38t-45.5 -13h-224v0z" />
    <glyph glyph-name="degree" unicode="&#xb0;" horiz-adv-x="388" 
d="M193 339q-35 0 -64.5 11t-50.5 31.5t-33 49.5t-12 64v8q0 35 12 64t34 49.5t51.5 32t65.5 11.5q35 0 64.5 -11t50.5 -31.5t33 -49.5t12 -64v-8q0 -35 -12 -64t-34 -49.5t-52 -32t-65 -11.5zM195 415q30 0 50.5 20.5t20.5 57.5v13q0 36 -21 57.5t-51 21.5q-32 0 -52 -20.5
t-20 -58.5v-13q0 -36 21.5 -57t51.5 -21z" />
    <glyph glyph-name="plusminus" unicode="&#xb1;" horiz-adv-x="447" 
d="M364 122q34 0 51 -14t17 -46v-5q0 -30 -17 -43.5t-51 -13.5h-262q-33 0 -50 13.5t-17 43.5v5q0 32 17 46t50 14h71v351q-14 -11 -30.5 -18t-35.5 -7q-39 0 -64.5 23t-25.5 60q0 18 5.5 31.5t12.5 22.5t13.5 13t8.5 3q13 -11 27 -16.5t34 -5.5q32 0 55.5 20.5t28.5 54.5
h43q65 0 65 -68v-464h54z" />
    <glyph glyph-name="acute" unicode="&#xb4;" 
d="M172 560q-3 5 5.5 23t24.5 40.5t38 46t47 38.5q26 17 50 17q27 0 45.5 -16t18.5 -39q0 -21 -13 -41.5t-36 -34.5q-29 -18 -60 -27t-56.5 -12t-43 -1t-20.5 6z" />
    <glyph glyph-name="mu" unicode="&#xb5;" horiz-adv-x="605" 
d="M411 307q-15 37 -45.5 58t-75.5 21q-58 0 -92.5 -39t-34.5 -105q0 -31 9.5 -57.5t26 -45.5t39.5 -29.5t50 -10.5q23 0 45.5 7.5t39.5 21.5t27.5 34.5t10.5 46.5v98zM415 420q4 22 13 36t20 22.5t24.5 11.5t26.5 3q21 0 37 -6.5t16 -9.5v-416q0 -39 -17.5 -53.5
t-46.5 -14.5h-15q-27 0 -44.5 15t-17.5 53v18q-23 -42 -63.5 -67t-94.5 -25q-49 0 -90.5 18.5t-71.5 52t-47 81t-17 104.5q0 58 16.5 105.5t46.5 81t72 51.5t93 18q56 0 97.5 -23t62.5 -56z" />
    <glyph glyph-name="mu" unicode="&#x3bc;" horiz-adv-x="605" 
d="M411 307q-15 37 -45.5 58t-75.5 21q-58 0 -92.5 -39t-34.5 -105q0 -31 9.5 -57.5t26 -45.5t39.5 -29.5t50 -10.5q23 0 45.5 7.5t39.5 21.5t27.5 34.5t10.5 46.5v98zM415 420q4 22 13 36t20 22.5t24.5 11.5t26.5 3q21 0 37 -6.5t16 -9.5v-416q0 -39 -17.5 -53.5
t-46.5 -14.5h-15q-27 0 -44.5 15t-17.5 53v18q-23 -42 -63.5 -67t-94.5 -25q-49 0 -90.5 18.5t-71.5 52t-47 81t-17 104.5q0 58 16.5 105.5t46.5 81t72 51.5t93 18q56 0 97.5 -23t62.5 -56z" />
    <glyph glyph-name="paragraph" unicode="&#xb6;" horiz-adv-x="623" 
d="M511 -7q-38 0 -38 43v575q0 43 38 43h13q41 0 41 -43v-575q0 -43 -41 -43h-13v0zM366 -7q-20 0 -30 11.5t-10 31.5v243h-69q-115 0 -175.5 46t-60.5 138q0 93 58 141t175 48h111q25 0 39 -14t14 -37v-565q0 -43 -39 -43h-13v0z" />
    <glyph glyph-name="periodcentered" unicode="&#xb7;" horiz-adv-x="245" 
d="M112 172q-66 0 -66 66v14q0 66 66 66h18q68 0 68 -66v-14q0 -66 -68 -66h-18v0z" />
    <glyph glyph-name="periodcentered" unicode="&#x2219;" horiz-adv-x="245" 
d="M112 172q-66 0 -66 66v14q0 66 66 66h18q68 0 68 -66v-14q0 -66 -68 -66h-18v0z" />
    <glyph glyph-name="cedilla" unicode="&#xb8;" 
d="M217 -223q-9 -7 -23 -8t-26 2.5t-19 11t-3 18.5l44 108q8 22 21 33.5t47 11.5h15q27 0 43 -10.5t16 -31.5v-5q0 -14 -9.5 -26t-28.5 -27l-77 -77v0z" />
    <glyph glyph-name="ordmasculine" unicode="&#xba;" horiz-adv-x="477" 
d="M238 249q-46 0 -84 15.5t-65.5 43.5t-42.5 65.5t-15 80.5t15.5 80.5t43.5 65.5t66.5 44t83.5 16t83 -15.5t65.5 -43.5t43 -65t15.5 -81q0 -43 -16 -81t-43.5 -65.5t-66 -43.5t-83.5 -16zM229 -8q-60 0 -60 60v12q0 60 60 60h16q61 0 61 -60v-12q0 -60 -61 -60h-16v0z
M239 345q45 0 74 31t29 79t-29.5 79.5t-73.5 31.5q-45 0 -74.5 -31.5t-29.5 -79.5q0 -47 30 -78.5t74 -31.5z" />
    <glyph glyph-name="guillemotright" unicode="&#xbb;" horiz-adv-x="533" 
d="M397 245q-20 12 -41.5 26.5t-39 29.5t-29 30.5t-11.5 28.5v2q0 20 11.5 33t34.5 13h2q25 0 55.5 -23t57.5 -52.5t45 -55.5t18 -32t-18 -32t-45 -55.5t-57.5 -52.5t-55.5 -23h-2q-23 0 -34.5 13t-11.5 33v2q0 14 11.5 29t29 30t39 29.5t41.5 26.5zM172 245q-22 14 -46 30
t-43.5 33t-32.5 33.5t-13 31.5v3q0 22 13 36t37 14h2q18 0 39.5 -12t43 -31t41 -41t34.5 -42.5t24 -35.5t9 -19t-9 -19t-24 -35.5t-34.5 -42.5t-41 -41t-42.5 -31t-40 -12h-2q-24 0 -37 14.5t-13 35.5v4q0 14 13 30.5t32.5 33.5t43.5 33t46 30z" />
    <glyph glyph-name="questiondown" unicode="&#xbf;" horiz-adv-x="499" 
d="M262 508q-68 0 -68 67v14q0 66 68 66h17q67 0 67 -66v-14q0 -67 -67 -67h-17v0zM247 -12q-53 0 -95 13t-71 36t-44.5 56.5t-15.5 73.5q0 41 13.5 68t34.5 46t45.5 33t45.5 29t36.5 34t17.5 48q6 27 57 27q26 0 43 -12t17 -37q-1 -42 -14.5 -68.5t-32.5 -45t-41.5 -30
t-41.5 -23t-31.5 -25t-12.5 -34.5q0 -34 24 -54t69 -20q32 0 55 10t38.5 26t24.5 37t12 42q0 1 15 1t33 -6.5t33 -21t15 -43.5q0 -27 -14.5 -55t-43 -51.5t-71.5 -38.5t-100 -15z" />
    <glyph glyph-name="Agrave" unicode="&#xc0;" horiz-adv-x="656" 
d="M413 275l-3.5 10t-10 26.5t-14.5 38t-16 43.5l-44 118l-89 -236h177zM208 165l-40 -104q-14 -38 -36 -53t-45 -15q-15 0 -30 5t-26 12.5t-17 15t-4 12.5l221 571q6 20 26 32t70 12q25 0 42 -3t27.5 -9t16.5 -14t9 -18l226 -570q2 -4 -4 -12t-17.5 -15.5t-26.5 -13
t-32 -5.5q-24 0 -47 15t-38 55l-39 102h-236zM208 755q-23 14 -36 34.5t-13 41.5q0 23 18.5 39t45.5 16q24 0 50 -17q25 -15 47 -38.5t38 -46t24.5 -40.5t5.5 -23q-3 -4 -20.5 -6t-43 1t-56.5 12t-60 27z" />
    <glyph glyph-name="Aacute" unicode="&#xc1;" horiz-adv-x="656" 
d="M413 275l-3.5 10t-10 26.5t-14.5 38t-16 43.5l-44 118l-89 -236h177zM208 165l-40 -104q-14 -38 -36 -53t-45 -15q-15 0 -30 5t-26 12.5t-17 15t-4 12.5l221 571q6 20 26 32t70 12q25 0 42 -3t27.5 -9t16.5 -14t9 -18l226 -570q2 -4 -4 -12t-17.5 -15.5t-26.5 -13
t-32 -5.5q-24 0 -47 15t-38 55l-39 102h-236zM261 721q-3 5 5.5 23t24.5 40.5t38 46t47 38.5q26 17 50 17q27 0 45.5 -16t18.5 -39q0 -21 -13 -41.5t-36 -34.5q-29 -18 -60 -27t-56.5 -12t-43 -1t-20.5 6z" />
    <glyph glyph-name="Acircumflex" unicode="&#xc2;" horiz-adv-x="656" 
d="M413 275l-3.5 10t-10 26.5t-14.5 38t-16 43.5l-44 118l-89 -236h177zM208 165l-40 -104q-14 -38 -36 -53t-45 -15q-15 0 -30 5t-26 12.5t-17 15t-4 12.5l221 571q6 20 26 32t70 12q25 0 42 -3t27.5 -9t16.5 -14t9 -18l226 -570q2 -4 -4 -12t-17.5 -15.5t-26.5 -13
t-32 -5.5q-24 0 -47 15t-38 55l-39 102h-236zM328 806q-59 -101 -106 -101q-20 0 -33 12t-13 32q0 23 18.5 48t43 47t50 37.5t40.5 19.5q15 -4 40 -19.5t50 -37.5t43 -47t18 -48q0 -20 -12.5 -32t-32.5 -12q-49 0 -106 101z" />
    <glyph glyph-name="Atilde" unicode="&#xc3;" horiz-adv-x="656" 
d="M413 275l-3.5 10t-10 26.5t-14.5 38t-16 43.5l-44 118l-89 -236h177zM208 165l-40 -104q-14 -38 -36 -53t-45 -15q-15 0 -30 5t-26 12.5t-17 15t-4 12.5l221 571q6 20 26 32t70 12q25 0 42 -3t27.5 -9t16.5 -14t9 -18l226 -570q2 -4 -4 -12t-17.5 -15.5t-26.5 -13
t-32 -5.5q-24 0 -47 15t-38 55l-39 102h-236zM212 708q-21 0 -34 14t-13 34q0 22 7 41t19.5 32.5t28.5 21.5t34 8q32 0 68 -17.5t72 -51.5q8 26 22.5 45.5t34.5 19.5q22 0 34.5 -14t12.5 -34q0 -22 -7 -41t-19.5 -32.5t-28.5 -21t-34 -7.5q-32 0 -68 17t-72 51
q-8 -26 -22.5 -45.5t-34.5 -19.5z" />
    <glyph glyph-name="Adieresis" unicode="&#xc4;" horiz-adv-x="656" 
d="M413 275l-3.5 10t-10 26.5t-14.5 38t-16 43.5l-44 118l-89 -236h177zM208 165l-40 -104q-14 -38 -36 -53t-45 -15q-15 0 -30 5t-26 12.5t-17 15t-4 12.5l221 571q6 20 26 32t70 12q25 0 42 -3t27.5 -9t16.5 -14t9 -18l226 -570q2 -4 -4 -12t-17.5 -15.5t-26.5 -13
t-32 -5.5q-24 0 -47 15t-38 55l-39 102h-236zM431 705q-35 0 -54.5 18.5t-19.5 53.5t19.5 53.5t51.5 18.5q34 0 54 -18.5t20 -53.5t-19.5 -53.5t-51.5 -18.5zM228 705q-34 0 -54 18.5t-20 53.5t19.5 53.5t51.5 18.5q35 0 54.5 -18.5t19.5 -53.5t-19.5 -53.5t-51.5 -18.5z
" />
    <glyph glyph-name="Aring" unicode="&#xc5;" horiz-adv-x="656" 
d="M327 665q23 0 39 16.5t16 40.5q0 25 -16 42t-39 17t-38.5 -17t-15.5 -42q0 -24 15.5 -40.5t38.5 -16.5zM208 165l-40 -104q-14 -38 -36 -53t-45 -15q-15 0 -30 5t-26 12.5t-17 15t-4 12.5l221 571q5 11 20 17q-23 15 -36 39.5t-13 56.5q0 26 9.5 48.5t26.5 39t40 26
t50 9.5t50 -9t39.5 -25.5t26 -39t9.5 -49.5q0 -32 -13.5 -56.5t-37.5 -39.5q14 -6 19 -17l227 -570q2 -4 -4 -12t-17.5 -15.5t-26.5 -13t-32 -5.5q-24 0 -47 15t-38 55l-39 102h-236zM414 275l-89 237l-89 -237h178z" />
    <glyph glyph-name="AE" unicode="&#xc6;" horiz-adv-x="875" 
d="M413 275l-88 236l-89 -236h177zM208 165l-40 -104q-14 -39 -36 -53.5t-45 -14.5q-16 0 -30.5 5t-25.5 12.5t-17 15t-4 12.5l216 558q8 23 28 37t67 14h450q35 0 51.5 -16.5t16.5 -45.5v-5q0 -62 -68 -62h-318l49 -128h191q36 0 52 -14.5t16 -42.5v-4q0 -60 -68 -60h-141
l55 -141h169q68 0 68 -58v-6q0 -64 -68 -64h-192q-21 0 -37 3t-28.5 10.5t-22 21t-17.5 34.5l-36 96h-235z" />
    <glyph glyph-name="Ccedilla" unicode="&#xc7;" horiz-adv-x="654" 
d="M369 -13q-73 0 -134.5 24.5t-105 69t-68 106.5t-24.5 136t24.5 136t68.5 106.5t105.5 69.5t135.5 25q64 0 111 -15.5t77.5 -38t45.5 -47.5t15 -45q0 -24 -13 -39.5t-28.5 -24t-29 -11t-14.5 -0.5q-24 42 -66.5 65t-92.5 23q-40 0 -74.5 -14.5t-59.5 -41.5t-39 -64.5
t-14 -82.5t14 -82.5t39.5 -64.5t60 -42t75.5 -15q57 0 99.5 26t61.5 72q1 2 14.5 -0.5t30 -11t30 -24t13.5 -39.5q0 -21 -15.5 -48t-47 -51t-80 -40.5t-115.5 -16.5zM320 -223q-9 -7 -23 -8t-26 2.5t-19 11t-3 18.5l44 108q8 22 21 33.5t47 11.5h15q27 0 43 -10.5t16 -31.5
v-5q0 -14 -9.5 -26t-28.5 -27l-77 -77v0z" />
    <glyph glyph-name="Egrave" unicode="&#xc8;" horiz-adv-x="600" 
d="M135 0q-36 0 -56.5 21t-20.5 60v484q0 39 20.5 60.5t56.5 21.5h361q35 0 51.5 -16.5t16.5 -45.5v-5q0 -62 -68 -62h-290v-128h212q36 0 52 -15t16 -42v-4q0 -60 -68 -60h-212v-141h295q68 0 68 -58v-6q0 -64 -68 -64h-366v0zM221 755q-23 14 -36 34.5t-13 41.5
q0 23 18.5 39t45.5 16q24 0 50 -17q25 -15 47 -38.5t38 -46t24.5 -40.5t5.5 -23q-3 -4 -20.5 -6t-43 1t-56.5 12t-60 27z" />
    <glyph glyph-name="Eacute" unicode="&#xc9;" horiz-adv-x="600" 
d="M135 0q-36 0 -56.5 21t-20.5 60v484q0 39 20.5 60.5t56.5 21.5h361q35 0 51.5 -16.5t16.5 -45.5v-5q0 -62 -68 -62h-290v-128h212q36 0 52 -15t16 -42v-4q0 -60 -68 -60h-212v-141h295q68 0 68 -58v-6q0 -64 -68 -64h-366v0zM224 721q-3 5 5.5 23t24.5 40.5t38 46
t47 38.5q26 17 50 17q27 0 45.5 -16t18.5 -39q0 -21 -13 -41.5t-36 -34.5q-29 -18 -60 -27t-56.5 -12t-43 -1t-20.5 6z" />
    <glyph glyph-name="Ecircumflex" unicode="&#xca;" horiz-adv-x="600" 
d="M135 0q-36 0 -56.5 21t-20.5 60v484q0 39 20.5 60.5t56.5 21.5h361q35 0 51.5 -16.5t16.5 -45.5v-5q0 -62 -68 -62h-290v-128h212q36 0 52 -15t16 -42v-4q0 -60 -68 -60h-212v-141h295q68 0 68 -58v-6q0 -64 -68 -64h-366v0zM315 806q-59 -101 -106 -101q-20 0 -33 12
t-13 32q0 23 18.5 48t43 47t50 37.5t40.5 19.5q15 -4 40 -19.5t50 -37.5t43 -47t18 -48q0 -20 -12.5 -32t-32.5 -12q-49 0 -106 101z" />
    <glyph glyph-name="Edieresis" unicode="&#xcb;" horiz-adv-x="600" 
d="M135 0q-36 0 -56.5 21t-20.5 60v484q0 39 20.5 60.5t56.5 21.5h361q35 0 51.5 -16.5t16.5 -45.5v-5q0 -62 -68 -62h-290v-128h212q36 0 52 -15t16 -42v-4q0 -60 -68 -60h-212v-141h295q68 0 68 -58v-6q0 -64 -68 -64h-366v0zM418 705q-35 0 -54.5 18.5t-19.5 53.5
t19.5 53.5t51.5 18.5q34 0 54 -18.5t20 -53.5t-19.5 -53.5t-51.5 -18.5zM215 705q-34 0 -54 18.5t-20 53.5t19.5 53.5t51.5 18.5q35 0 54.5 -18.5t19.5 -53.5t-19.5 -53.5t-51.5 -18.5z" />
    <glyph glyph-name="Igrave" unicode="&#xcc;" horiz-adv-x="280" 
d="M129 -4q-63 0 -63 67v521q0 67 63 67h20q65 0 65 -67v-521q0 -67 -65 -67h-20v0zM34 755q-23 14 -36 34.5t-13 41.5q0 23 18.5 39t45.5 16q24 0 50 -17q25 -15 47 -38.5t38 -46t24.5 -40.5t5.5 -23q-3 -4 -20.5 -6t-43 1t-56.5 12t-60 27z" />
    <glyph glyph-name="Iacute" unicode="&#xcd;" horiz-adv-x="280" 
d="M129 -4q-63 0 -63 67v521q0 67 63 67h20q65 0 65 -67v-521q0 -67 -65 -67h-20v0zM63 721q-3 5 5.5 23t24.5 40.5t38 46t47 38.5q26 17 50 17q27 0 45.5 -16t18.5 -39q0 -21 -13 -41.5t-36 -34.5q-29 -18 -60 -27t-56.5 -12t-43 -1t-20.5 6z" />
    <glyph glyph-name="Icircumflex" unicode="&#xce;" horiz-adv-x="280" 
d="M129 -4q-63 0 -63 67v521q0 67 63 67h20q65 0 65 -67v-521q0 -67 -65 -67h-20v0zM139 806q-59 -101 -106 -101q-20 0 -33 12t-13 32q0 23 18.5 48t43 47t50 37.5t40.5 19.5q15 -4 40 -19.5t50 -37.5t43 -47t18 -48q0 -20 -12.5 -32t-32.5 -12q-49 0 -106 101z" />
    <glyph glyph-name="Idieresis" unicode="&#xcf;" horiz-adv-x="280" 
d="M129 -4q-63 0 -63 67v521q0 67 63 67h20q65 0 65 -67v-521q0 -67 -65 -67h-20v0zM242 705q-35 0 -54.5 18.5t-19.5 53.5t19.5 53.5t51.5 18.5q34 0 54 -18.5t20 -53.5t-19.5 -53.5t-51.5 -18.5zM39 705q-34 0 -54 18.5t-20 53.5t19.5 53.5t51.5 18.5q35 0 54.5 -18.5
t19.5 -53.5t-19.5 -53.5t-51.5 -18.5z" />
    <glyph glyph-name="Eth" unicode="&#xd0;" horiz-adv-x="726" 
d="M367 377q27 0 38.5 -13.5t11.5 -32.5v-12q0 -20 -11.5 -33.5t-38.5 -13.5h-125v-145h95q98 0 152.5 51.5t54.5 146.5q0 93 -54 144t-151 51h-97v-143h125zM59 272q-27 0 -39 13.5t-12 33.5v12q0 19 12 32.5t39 13.5h36v188q0 39 22.5 60.5t55.5 21.5h166q81 0 146 -22
t110.5 -63.5t70 -101t24.5 -134.5t-25 -135.5t-71 -102.5t-112 -65t-147 -23h-158q-34 0 -58 23.5t-24 57.5v191h-36z" />
    <glyph glyph-name="Ntilde" unicode="&#xd1;" horiz-adv-x="692" 
d="M119 -4q-61 0 -61 67v515q0 35 17 54t47 19h18q29 0 43.5 -10t31.5 -32l280 -385v360q0 67 63 67h14q62 0 62 -67v-515q0 -36 -17 -54.5t-46 -18.5h-12q-15 0 -25 2t-17.5 6.5t-14 11t-14.5 16.5l-291 400v-369q0 -67 -64 -67h-14v0zM227 708q-21 0 -34 14t-13 34
q0 22 7 41t19.5 32.5t28.5 21.5t34 8q32 0 68 -17.5t72 -51.5q8 26 22.5 45.5t34.5 19.5q22 0 34.5 -14t12.5 -34q0 -22 -7 -41t-19.5 -32.5t-28.5 -21t-34 -7.5q-32 0 -68 17t-72 51q-8 -26 -22.5 -45.5t-34.5 -19.5z" />
    <glyph glyph-name="Ograve" unicode="&#xd2;" horiz-adv-x="737" 
d="M368 -13q-73 0 -134.5 24.5t-105.5 69t-68.5 106.5t-24.5 136t25 136t69.5 106.5t105.5 69.5t134 25q74 0 135 -25t105 -69.5t68.5 -106t24.5 -135.5t-24.5 -136t-69 -106.5t-105.5 -69.5t-135 -25zM369 118q42 0 76 14.5t59 41.5t38.5 65t13.5 84t-14 84t-38.5 65.5
t-59 42.5t-76.5 15t-76 -14.5t-58.5 -41.5t-38 -65t-13.5 -85q0 -46 13.5 -84t38.5 -65t59 -42t76 -15zM255 755q-23 14 -36 34.5t-13 41.5q0 23 18.5 39t45.5 16q24 0 50 -17q25 -15 47 -38.5t38 -46t24.5 -40.5t5.5 -23q-3 -4 -20.5 -6t-43 1t-56.5 12t-60 27z" />
    <glyph glyph-name="Oacute" unicode="&#xd3;" horiz-adv-x="737" 
d="M368 -13q-73 0 -134.5 24.5t-105.5 69t-68.5 106.5t-24.5 136t25 136t69.5 106.5t105.5 69.5t134 25q74 0 135 -25t105 -69.5t68.5 -106t24.5 -135.5t-24.5 -136t-69 -106.5t-105.5 -69.5t-135 -25zM369 118q42 0 76 14.5t59 41.5t38.5 65t13.5 84t-14 84t-38.5 65.5
t-59 42.5t-76.5 15t-76 -14.5t-58.5 -41.5t-38 -65t-13.5 -85q0 -46 13.5 -84t38.5 -65t59 -42t76 -15zM293 721q-3 5 5.5 23t24.5 40.5t38 46t47 38.5q26 17 50 17q27 0 45.5 -16t18.5 -39q0 -21 -13 -41.5t-36 -34.5q-29 -18 -60 -27t-56.5 -12t-43 -1t-20.5 6z" />
    <glyph glyph-name="Ocircumflex" unicode="&#xd4;" horiz-adv-x="737" 
d="M368 -13q-73 0 -134.5 24.5t-105.5 69t-68.5 106.5t-24.5 136t25 136t69.5 106.5t105.5 69.5t134 25q74 0 135 -25t105 -69.5t68.5 -106t24.5 -135.5t-24.5 -136t-69 -106.5t-105.5 -69.5t-135 -25zM369 118q42 0 76 14.5t59 41.5t38.5 65t13.5 84t-14 84t-38.5 65.5
t-59 42.5t-76.5 15t-76 -14.5t-58.5 -41.5t-38 -65t-13.5 -85q0 -46 13.5 -84t38.5 -65t59 -42t76 -15zM369 806q-59 -101 -106 -101q-20 0 -33 12t-13 32q0 23 18.5 48t43 47t50 37.5t40.5 19.5q15 -4 40 -19.5t50 -37.5t43 -47t18 -48q0 -20 -12.5 -32t-32.5 -12
q-49 0 -106 101z" />
    <glyph glyph-name="Otilde" unicode="&#xd5;" horiz-adv-x="737" 
d="M368 -13q-73 0 -134.5 24.5t-105.5 69t-68.5 106.5t-24.5 136t25 136t69.5 106.5t105.5 69.5t134 25q74 0 135 -25t105 -69.5t68.5 -106t24.5 -135.5t-24.5 -136t-69 -106.5t-105.5 -69.5t-135 -25zM369 118q42 0 76 14.5t59 41.5t38.5 65t13.5 84t-14 84t-38.5 65.5
t-59 42.5t-76.5 15t-76 -14.5t-58.5 -41.5t-38 -65t-13.5 -85q0 -46 13.5 -84t38.5 -65t59 -42t76 -15zM250 708q-21 0 -34 14t-13 34q0 22 7 41t19.5 32.5t28.5 21.5t34 8q32 0 68 -17.5t72 -51.5q8 26 22.5 45.5t34.5 19.5q22 0 34.5 -14t12.5 -34q0 -22 -7 -41
t-19.5 -32.5t-28.5 -21t-34 -7.5q-32 0 -68 17t-72 51q-8 -26 -22.5 -45.5t-34.5 -19.5z" />
    <glyph glyph-name="Odieresis" unicode="&#xd6;" horiz-adv-x="737" 
d="M368 -13q-73 0 -134.5 24.5t-105.5 69t-68.5 106.5t-24.5 136t25 136t69.5 106.5t105.5 69.5t134 25q74 0 135 -25t105 -69.5t68.5 -106t24.5 -135.5t-24.5 -136t-69 -106.5t-105.5 -69.5t-135 -25zM369 118q42 0 76 14.5t59 41.5t38.5 65t13.5 84t-14 84t-38.5 65.5
t-59 42.5t-76.5 15t-76 -14.5t-58.5 -41.5t-38 -65t-13.5 -85q0 -46 13.5 -84t38.5 -65t59 -42t76 -15zM472 705q-35 0 -54.5 18.5t-19.5 53.5t19.5 53.5t51.5 18.5q34 0 54 -18.5t20 -53.5t-19.5 -53.5t-51.5 -18.5zM269 705q-34 0 -54 18.5t-20 53.5t19.5 53.5t51.5 18.5
q35 0 54.5 -18.5t19.5 -53.5t-19.5 -53.5t-51.5 -18.5z" />
    <glyph glyph-name="multiply" unicode="&#xd7;" horiz-adv-x="554" 
d="M86 69q-16 16 -16.5 36t21.5 41l112 111l-112 111q-22 21 -21 41t15 36l9 8q15 16 35 16t42 -23l107 -113l107 113q22 23 42.5 23t35.5 -16l8 -8q15 -16 16 -36t-21 -41l-113 -111l113 -111q22 -21 21.5 -41t-16.5 -36l-9 -8q-14 -15 -34.5 -16t-42.5 22l-107 114
l-107 -114q-22 -23 -42 -22t-35 16z" />
    <glyph glyph-name="Oslash" unicode="&#xd8;" horiz-adv-x="737" 
d="M472 507q-22 13 -48 20t-55 7q-45 0 -81 -15.5t-61.5 -43.5t-39.5 -66.5t-14 -84.5q0 -67 29 -117zM264 142q46 -29 106 -29q45 0 81 15.5t62 43.5t40 66.5t14 84.5q0 69 -31 120zM629 544q35 -44 54.5 -99.5t19.5 -120.5q0 -72 -24.5 -134t-68.5 -107t-105.5 -70.5
t-135.5 -25.5q-57 0 -105 14.5t-88 41.5q0 1 -12 -12.5t-27 -30.5q-18 -19 -40 -43q-2 -3 -11.5 -0.5t-20 9t-19 16.5t-8.5 24q0 10 5 21.5t18 26.5l47 52q-35 43 -53.5 98t-18.5 119q0 72 24.5 133.5t68.5 107t105.5 71t135.5 25.5q56 0 104 -14.5t87 -40.5l72 80
q2 2 11.5 0t20 -8.5t19 -16.5t8.5 -24q0 -11 -5 -22.5t-18 -25.5l-40 -44v0z" />
    <glyph glyph-name="Ugrave" unicode="&#xd9;" horiz-adv-x="663" 
d="M331 -11q-138 0 -208 71t-70 212v312q0 34 17 50.5t47 16.5h19q64 0 64 -67v-310q0 -157 132 -157q131 0 131 157v310q0 67 64 67h20q63 0 63 -67v-310q0 -141 -70.5 -213t-208.5 -72zM222 750q-23 14 -36 34.5t-13 41.5q0 23 18.5 39t45.5 16q24 0 50 -17
q25 -15 47 -38.5t38 -46t24.5 -40.5t5.5 -23q-3 -4 -20.5 -6t-43 1t-56.5 12t-60 27z" />
    <glyph glyph-name="Uacute" unicode="&#xda;" horiz-adv-x="663" 
d="M331 -11q-138 0 -208 71t-70 212v312q0 34 17 50.5t47 16.5h19q64 0 64 -67v-310q0 -157 132 -157q131 0 131 157v310q0 67 64 67h20q63 0 63 -67v-310q0 -141 -70.5 -213t-208.5 -72zM264 716q-3 5 5.5 23t24.5 40.5t38 46t47 38.5q26 17 50 17q27 0 45.5 -16t18.5 -39
q0 -21 -13 -41.5t-36 -34.5q-29 -18 -60 -27t-56.5 -12t-43 -1t-20.5 6z" />
    <glyph glyph-name="Ucircumflex" unicode="&#xdb;" horiz-adv-x="663" 
d="M331 -11q-138 0 -208 71t-70 212v312q0 34 17 50.5t47 16.5h19q64 0 64 -67v-310q0 -157 132 -157q131 0 131 157v310q0 67 64 67h20q63 0 63 -67v-310q0 -141 -70.5 -213t-208.5 -72zM331 806q-59 -101 -106 -101q-20 0 -33 12t-13 32q0 23 18.5 48t43 47t50 37.5
t40.5 19.5q15 -4 40 -19.5t50 -37.5t43 -47t18 -48q0 -20 -12.5 -32t-32.5 -12q-49 0 -106 101z" />
    <glyph glyph-name="Udieresis" unicode="&#xdc;" horiz-adv-x="663" 
d="M331 -11q-138 0 -208 71t-70 212v312q0 34 17 50.5t47 16.5h19q64 0 64 -67v-310q0 -157 132 -157q131 0 131 157v310q0 67 64 67h20q63 0 63 -67v-310q0 -141 -70.5 -213t-208.5 -72zM434 705q-35 0 -54.5 18.5t-19.5 53.5t19.5 53.5t51.5 18.5q34 0 54 -18.5t20 -53.5
t-19.5 -53.5t-51.5 -18.5zM231 705q-34 0 -54 18.5t-20 53.5t19.5 53.5t51.5 18.5q35 0 54.5 -18.5t19.5 -53.5t-19.5 -53.5t-51.5 -18.5z" />
    <glyph glyph-name="Yacute" unicode="&#xdd;" horiz-adv-x="603" 
d="M376 63q0 -67 -65 -67h-20q-63 0 -63 67v197l-226 334q-2 3 2.5 12.5t15.5 19t30 17.5t46 8q20 0 38 -12.5t32 -38.5l136 -222l138 221q17 29 35 40.5t36 11.5q25 0 42.5 -8t29 -18t16 -19t2.5 -12l-225 -334v-197zM228 716q-3 5 5.5 23t24.5 40.5t38 46t47 38.5
q26 17 50 17q27 0 45.5 -16t18.5 -39q0 -21 -13 -41.5t-36 -34.5q-29 -18 -60 -27t-56.5 -12t-43 -1t-20.5 6z" />
    <glyph glyph-name="Thorn" unicode="&#xde;" horiz-adv-x="597" 
d="M301 540q131 0 199 -54.5t68 -160.5t-66.5 -159.5t-199.5 -53.5h-96v-49q0 -67 -65 -67h-21q-62 0 -62 67v521q0 67 62 67h21q65 0 65 -67v-44h95zM301 224q125 0 125 100q0 101 -123 101h-97v-201h95z" />
    <glyph glyph-name="germandbls" unicode="&#xdf;" horiz-adv-x="585" 
d="M406 390q83 -27 122 -81t39 -126q0 -43 -14.5 -79t-40 -62t-61 -40.5t-76.5 -14.5q-72 0 -108.5 24.5t-36.5 61.5q0 13 5 24t11.5 19t12 12.5t6.5 3.5q14 -14 32 -24t51 -10q17 0 32.5 6.5t27 18t18 26.5t6.5 33q0 39 -24 68.5t-89 47.5q-29 9 -45.5 24.5t-16.5 49.5
q0 14 4 24.5t9 18.5q5 10 12 17q54 0 82 19t28 62q0 37 -25.5 58.5t-68.5 21.5q-51 0 -77.5 -30.5t-26.5 -96.5v-405q0 -34 -17 -51t-46 -17h-15q-29 0 -46 17.5t-17 50.5v394q0 127 61.5 186t185.5 59q106 0 166.5 -46t60.5 -123q0 -60 -30 -94.5t-91 -46.5z" />
    <glyph glyph-name="agrave" unicode="&#xe0;" horiz-adv-x="546" 
d="M239 81q53 0 86 31t33 79v28l-26 -1q-84 -2 -126.5 -20t-42.5 -58q0 -27 20.5 -43t55.5 -16zM358 296q0 97 -100 97q-51 0 -79 -23t-42 -52q0 -1 -14 -0.5t-31.5 5.5t-31.5 18t-14 37q0 23 13.5 44.5t41 38.5t69 27.5t97.5 10.5q116 0 173 -51t57 -150v-289
q0 -5 -16.5 -10.5t-36.5 -5.5q-33 0 -55 18.5t-28 59.5q-26 -38 -70 -60t-99 -22q-77 0 -120.5 39t-43.5 102q0 85 76.5 124.5t237.5 41.5h16v0zM175 594q-23 14 -36 34.5t-13 41.5q0 23 18.5 39t45.5 16q24 0 50 -17q25 -15 47 -38.5t38 -46t24.5 -40.5t5.5 -23
q-3 -4 -20.5 -6t-43 1t-56.5 12t-60 27z" />
    <glyph glyph-name="aacute" unicode="&#xe1;" horiz-adv-x="546" 
d="M239 81q53 0 86 31t33 79v28l-26 -1q-84 -2 -126.5 -20t-42.5 -58q0 -27 20.5 -43t55.5 -16zM358 296q0 97 -100 97q-51 0 -79 -23t-42 -52q0 -1 -14 -0.5t-31.5 5.5t-31.5 18t-14 37q0 23 13.5 44.5t41 38.5t69 27.5t97.5 10.5q116 0 173 -51t57 -150v-289
q0 -5 -16.5 -10.5t-36.5 -5.5q-33 0 -55 18.5t-28 59.5q-26 -38 -70 -60t-99 -22q-77 0 -120.5 39t-43.5 102q0 85 76.5 124.5t237.5 41.5h16v0zM191 560q-3 5 5.5 23t24.5 40.5t38 46t47 38.5q26 17 50 17q27 0 45.5 -16t18.5 -39q0 -21 -13 -41.5t-36 -34.5
q-29 -18 -60 -27t-56.5 -12t-43 -1t-20.5 6z" />
    <glyph glyph-name="acircumflex" unicode="&#xe2;" horiz-adv-x="546" 
d="M239 81q53 0 86 31t33 79v28l-26 -1q-84 -2 -126.5 -20t-42.5 -58q0 -27 20.5 -43t55.5 -16zM358 296q0 97 -100 97q-51 0 -79 -23t-42 -52q0 -1 -14 -0.5t-31.5 5.5t-31.5 18t-14 37q0 23 13.5 44.5t41 38.5t69 27.5t97.5 10.5q116 0 173 -51t57 -150v-289
q0 -5 -16.5 -10.5t-36.5 -5.5q-33 0 -55 18.5t-28 59.5q-26 -38 -70 -60t-99 -22q-77 0 -120.5 39t-43.5 102q0 85 76.5 124.5t237.5 41.5h16v0zM274 645q-59 -101 -106 -101q-20 0 -33 12t-13 32q0 23 18.5 48t43 47t50 37.5t40.5 19.5q15 -4 40 -19.5t50 -37.5t43 -47
t18 -48q0 -20 -12.5 -32t-32.5 -12q-49 0 -106 101z" />
    <glyph glyph-name="atilde" unicode="&#xe3;" horiz-adv-x="546" 
d="M239 81q53 0 86 31t33 79v28l-26 -1q-84 -2 -126.5 -20t-42.5 -58q0 -27 20.5 -43t55.5 -16zM358 296q0 97 -100 97q-51 0 -79 -23t-42 -52q0 -1 -14 -0.5t-31.5 5.5t-31.5 18t-14 37q0 23 13.5 44.5t41 38.5t69 27.5t97.5 10.5q116 0 173 -51t57 -150v-289
q0 -5 -16.5 -10.5t-36.5 -5.5q-33 0 -55 18.5t-28 59.5q-26 -38 -70 -60t-99 -22q-77 0 -120.5 39t-43.5 102q0 85 76.5 124.5t237.5 41.5h16v0zM150 547q-21 0 -34 14t-13 34q0 22 7 41t19.5 32.5t28.5 21.5t34 8q32 0 68 -17.5t72 -51.5q8 26 22.5 45.5t34.5 19.5
q22 0 34.5 -14t12.5 -34q0 -22 -7 -41t-19.5 -32.5t-28.5 -21t-34 -7.5q-32 0 -68 17t-72 51q-8 -26 -22.5 -45.5t-34.5 -19.5z" />
    <glyph glyph-name="adieresis" unicode="&#xe4;" horiz-adv-x="546" 
d="M239 81q53 0 86 31t33 79v28l-26 -1q-84 -2 -126.5 -20t-42.5 -58q0 -27 20.5 -43t55.5 -16zM358 296q0 97 -100 97q-51 0 -79 -23t-42 -52q0 -1 -14 -0.5t-31.5 5.5t-31.5 18t-14 37q0 23 13.5 44.5t41 38.5t69 27.5t97.5 10.5q116 0 173 -51t57 -150v-289
q0 -5 -16.5 -10.5t-36.5 -5.5q-33 0 -55 18.5t-28 59.5q-26 -38 -70 -60t-99 -22q-77 0 -120.5 39t-43.5 102q0 85 76.5 124.5t237.5 41.5h16v0zM372 544q-35 0 -54.5 18.5t-19.5 53.5t19.5 53.5t51.5 18.5q34 0 54 -18.5t20 -53.5t-19.5 -53.5t-51.5 -18.5zM169 544
q-34 0 -54 18.5t-20 53.5t19.5 53.5t51.5 18.5q35 0 54.5 -18.5t19.5 -53.5t-19.5 -53.5t-51.5 -18.5z" />
    <glyph glyph-name="aring" unicode="&#xe5;" horiz-adv-x="546" 
d="M239 81q53 0 86 31t33 79v28l-26 -1q-84 -2 -126.5 -20t-42.5 -58q0 -27 20.5 -43t55.5 -16zM358 296q0 97 -100 97q-51 0 -79 -23t-42 -52q0 -1 -14 -0.5t-31.5 5.5t-31.5 18t-14 37q0 23 13.5 44.5t41 38.5t69 27.5t97.5 10.5q116 0 173 -51t57 -150v-289
q0 -5 -16.5 -10.5t-36.5 -5.5q-33 0 -55 18.5t-28 59.5q-26 -38 -70 -60t-99 -22q-77 0 -120.5 39t-43.5 102q0 85 76.5 124.5t237.5 41.5h16v0zM268 544q-57 0 -91 34.5t-34 87.5q0 26 9.5 48t26 38.5t40 26t50.5 9.5q57 0 91 -34.5t34 -87.5t-35 -87.5t-91 -34.5zM268 608
q24 0 39.5 16.5t15.5 41.5t-16 42t-39 17t-38.5 -17t-15.5 -42q0 -24 15.5 -41t38.5 -17z" />
    <glyph glyph-name="ae" unicode="&#xe6;" horiz-adv-x="869" 
d="M713 288q-3 51 -33 82t-81 31q-50 0 -84.5 -31.5t-41.5 -81.5h240zM239 81q53 0 86 31t33 79v28l-26 -1q-84 -2 -126.5 -20t-42.5 -58q0 -27 20.5 -43t55.5 -16zM358 297q0 47 -25.5 71.5t-74.5 24.5q-51 0 -79 -23t-42 -52q0 -1 -14 -0.5t-31.5 5.5t-31.5 18t-14 37
q0 23 13 44.5t39.5 38.5t66 27.5t91.5 10.5q122 0 173 -71q31 34 74 52.5t97 18.5t99 -18t77.5 -50.5t50 -77t17.5 -98.5v-10q-1 -19 -8 -29t-26 -10h-336q7 -55 45 -85.5t96 -30.5q55 0 87.5 21.5t49.5 50.5q0 1 11 -1t23.5 -9t23 -20t10.5 -34q0 -19 -14 -39t-40.5 -36
t-65.5 -26t-90 -10q-79 0 -132.5 28t-81.5 82q-26 -48 -79.5 -78t-123.5 -30q-76 0 -120.5 39t-44.5 102q0 85 76.5 124.5t237.5 41.5l16 1v0z" />
    <glyph glyph-name="ccedilla" unicode="&#xe7;" horiz-adv-x="514" 
d="M284 -13q-57 0 -104 19t-81 53t-53 81t-19 103t19 103t53.5 80.5t81.5 52.5t103 19t95.5 -14t64.5 -34.5t36.5 -43.5t11.5 -40q0 -21 -12 -34t-26 -20t-26.5 -8.5t-13.5 0.5q-14 35 -43 58t-81 23q-29 0 -53.5 -10.5t-42 -29.5t-27.5 -45t-10 -57t10 -57.5t27.5 -45.5
t42 -29.5t53.5 -10.5q51 0 80.5 23t43.5 58q1 2 13 1t26.5 -8t26.5 -20t12 -36q0 -17 -12 -39.5t-37.5 -43t-64.5 -34.5t-94 -14zM242 -223q-9 -7 -23 -8t-26 2.5t-19 11t-3 18.5l44 108q8 22 21 33.5t47 11.5h15q27 0 43 -10.5t16 -31.5v-5q0 -14 -9.5 -26t-28.5 -27
l-77 -77v0z" />
    <glyph glyph-name="egrave" unicode="&#xe8;" horiz-adv-x="550" 
d="M394 288q-2 51 -32.5 82t-81.5 31q-50 0 -84 -31.5t-41 -81.5h239zM155 206q8 -55 46 -85.5t95 -30.5q56 0 88.5 21.5t49.5 50.5q0 1 11 -1t23.5 -9t23 -20t10.5 -34q0 -19 -14 -39t-40.5 -36t-66 -26t-90.5 -10q-60 0 -108.5 18t-83 51t-53.5 79.5t-19 104.5
q0 56 19 103.5t53 82t81 54t102 19.5q54 0 98.5 -18t77 -50.5t50 -77t17.5 -98.5v-10q-1 -19 -7.5 -29t-26.5 -10h-336v0zM170 594q-23 14 -36 34.5t-13 41.5q0 23 18.5 39t45.5 16q24 0 50 -17q25 -15 47 -38.5t38 -46t24.5 -40.5t5.5 -23q-3 -4 -20.5 -6t-43 1t-56.5 12
t-60 27z" />
    <glyph glyph-name="eacute" unicode="&#xe9;" horiz-adv-x="550" 
d="M394 288q-2 51 -32.5 82t-81.5 31q-50 0 -84 -31.5t-41 -81.5h239zM155 206q8 -55 46 -85.5t95 -30.5q56 0 88.5 21.5t49.5 50.5q0 1 11 -1t23.5 -9t23 -20t10.5 -34q0 -19 -14 -39t-40.5 -36t-66 -26t-90.5 -10q-60 0 -108.5 18t-83 51t-53.5 79.5t-19 104.5
q0 56 19 103.5t53 82t81 54t102 19.5q54 0 98.5 -18t77 -50.5t50 -77t17.5 -98.5v-10q-1 -19 -7.5 -29t-26.5 -10h-336v0zM199 560q-3 5 5.5 23t24.5 40.5t38 46t47 38.5q26 17 50 17q27 0 45.5 -16t18.5 -39q0 -21 -13 -41.5t-36 -34.5q-29 -18 -60 -27t-56.5 -12t-43 -1
t-20.5 6z" />
    <glyph glyph-name="ecircumflex" unicode="&#xea;" horiz-adv-x="550" 
d="M394 288q-2 51 -32.5 82t-81.5 31q-50 0 -84 -31.5t-41 -81.5h239zM155 206q8 -55 46 -85.5t95 -30.5q56 0 88.5 21.5t49.5 50.5q0 1 11 -1t23.5 -9t23 -20t10.5 -34q0 -19 -14 -39t-40.5 -36t-66 -26t-90.5 -10q-60 0 -108.5 18t-83 51t-53.5 79.5t-19 104.5
q0 56 19 103.5t53 82t81 54t102 19.5q54 0 98.5 -18t77 -50.5t50 -77t17.5 -98.5v-10q-1 -19 -7.5 -29t-26.5 -10h-336v0zM281 645q-59 -101 -106 -101q-20 0 -33 12t-13 32q0 23 18.5 48t43 47t50 37.5t40.5 19.5q15 -4 40 -19.5t50 -37.5t43 -47t18 -48q0 -20 -12.5 -32
t-32.5 -12q-49 0 -106 101z" />
    <glyph glyph-name="edieresis" unicode="&#xeb;" horiz-adv-x="550" 
d="M394 288q-2 51 -32.5 82t-81.5 31q-50 0 -84 -31.5t-41 -81.5h239zM155 206q8 -55 46 -85.5t95 -30.5q56 0 88.5 21.5t49.5 50.5q0 1 11 -1t23.5 -9t23 -20t10.5 -34q0 -19 -14 -39t-40.5 -36t-66 -26t-90.5 -10q-60 0 -108.5 18t-83 51t-53.5 79.5t-19 104.5
q0 56 19 103.5t53 82t81 54t102 19.5q54 0 98.5 -18t77 -50.5t50 -77t17.5 -98.5v-10q-1 -19 -7.5 -29t-26.5 -10h-336v0zM384 544q-35 0 -54.5 18.5t-19.5 53.5t19.5 53.5t51.5 18.5q34 0 54 -18.5t20 -53.5t-19.5 -53.5t-51.5 -18.5zM181 544q-34 0 -54 18.5t-20 53.5
t19.5 53.5t51.5 18.5q35 0 54.5 -18.5t19.5 -53.5t-19.5 -53.5t-51.5 -18.5z" />
    <glyph glyph-name="igrave" unicode="&#xec;" horiz-adv-x="255" 
d="M121 -4q-28 0 -46 14t-18 53v362q0 38 18 53t45 15h15q29 0 46 -14.5t17 -53.5v-362q0 -38 -17.5 -52.5t-44.5 -14.5h-15v0zM25 594q-23 14 -36 34.5t-13 41.5q0 23 18.5 39t45.5 16q24 0 50 -17q25 -15 47 -38.5t38 -46t24.5 -40.5t5.5 -23q-3 -4 -20.5 -6t-43 1
t-56.5 12t-60 27z" />
    <glyph glyph-name="iacute" unicode="&#xed;" horiz-adv-x="255" 
d="M121 -4q-28 0 -46 14t-18 53v362q0 38 18 53t45 15h15q29 0 46 -14.5t17 -53.5v-362q0 -38 -17.5 -52.5t-44.5 -14.5h-15v0zM54 560q-3 5 5.5 23t24.5 40.5t38 46t47 38.5q26 17 50 17q27 0 45.5 -16t18.5 -39q0 -21 -13 -41.5t-36 -34.5q-29 -18 -60 -27t-56.5 -12
t-43 -1t-20.5 6z" />
    <glyph glyph-name="icircumflex" unicode="&#xee;" horiz-adv-x="255" 
d="M121 -4q-28 0 -46 14t-18 53v362q0 38 18 53t45 15h15q29 0 46 -14.5t17 -53.5v-362q0 -38 -17.5 -52.5t-44.5 -14.5h-15v0zM130 645q-59 -101 -106 -101q-20 0 -33 12t-13 32q0 23 18.5 48t43 47t50 37.5t40.5 19.5q15 -4 40 -19.5t50 -37.5t43 -47t18 -48
q0 -20 -12.5 -32t-32.5 -12q-49 0 -106 101z" />
    <glyph glyph-name="idieresis" unicode="&#xef;" horiz-adv-x="255" 
d="M121 -4q-28 0 -46 14t-18 53v362q0 38 18 53t45 15h15q29 0 46 -14.5t17 -53.5v-362q0 -38 -17.5 -52.5t-44.5 -14.5h-15v0zM233 544q-35 0 -54.5 18.5t-19.5 53.5t19.5 53.5t51.5 18.5q34 0 54 -18.5t20 -53.5t-19.5 -53.5t-51.5 -18.5zM30 544q-34 0 -54 18.5t-20 53.5
t19.5 53.5t51.5 18.5q35 0 54.5 -18.5t19.5 -53.5t-19.5 -53.5t-51.5 -18.5z" />
    <glyph glyph-name="eth" unicode="&#xf0;" horiz-adv-x="599" 
d="M423 286q-15 27 -49 48.5t-76 21.5q-63 0 -97 -34.5t-34 -93.5q0 -60 34 -95t91 -35q62 0 96.5 41t34.5 106v41v0zM214 500q-24 -13 -42 -8t-26 25l-2 5q-8 19 -3 35t31 30l41 21q-26 11 -54.5 17.5t-59.5 11.5q-3 1 -1 13.5t13 27.5t33 27.5t58 12.5q75 0 149 -40
l102 53q25 13 40.5 6t26.5 -23l4 -4q12 -17 4.5 -34.5t-32.5 -30.5l-59 -30q57 -56 93.5 -137t36.5 -184q0 -72 -20 -128.5t-56.5 -96.5t-87.5 -61t-113 -21q-58 0 -106 16t-82 47t-52.5 75t-18.5 101q0 51 17 93.5t48 72.5t74 47t95 17q55 0 96.5 -23.5t63.5 -56.5
q-12 54 -40.5 98.5t-71.5 78.5z" />
    <glyph glyph-name="ntilde" unicode="&#xf1;" horiz-adv-x="581" 
d="M192 413q26 38 64 62t95 24q48 0 82.5 -16t56.5 -43t32.5 -64t10.5 -79v-234q0 -38 -17.5 -52.5t-44.5 -14.5h-15q-29 0 -46.5 14t-17.5 53v213q0 49 -23.5 77t-66.5 28q-38 0 -65.5 -17.5t-42.5 -46.5v-254q0 -38 -17.5 -52.5t-44.5 -14.5h-15q-29 0 -46.5 14t-17.5 53
v414q0 3 16 9.5t37 6.5q14 0 27.5 -3.5t25.5 -12.5t20.5 -24.5t12.5 -39.5zM173 547q-21 0 -34 14t-13 34q0 22 7 41t19.5 32.5t28.5 21.5t34 8q32 0 68 -17.5t72 -51.5q8 26 22.5 45.5t34.5 19.5q22 0 34.5 -14t12.5 -34q0 -22 -7 -41t-19.5 -32.5t-28.5 -21t-34 -7.5
q-32 0 -68 17t-72 51q-8 -26 -22.5 -45.5t-34.5 -19.5z" />
    <glyph glyph-name="ograve" unicode="&#xf2;" horiz-adv-x="576" 
d="M287 -13q-58 0 -106 18.5t-82 52t-53 81t-19 104.5t19 104t53.5 80.5t83 52.5t106.5 19t105.5 -19t81.5 -52.5t53 -81t19 -104.5t-19 -104t-53 -80.5t-82 -52t-107 -18.5zM288 98q29 0 54 11t43 30t28.5 45.5t10.5 57.5q0 32 -10 59t-28 46.5t-43 30.5t-55 11t-55 -11
t-43 -30.5t-28.5 -46t-10.5 -58.5q0 -31 10.5 -58t28.5 -46t43 -30t55 -11zM176 594q-23 14 -36 34.5t-13 41.5q0 23 18.5 39t45.5 16q24 0 50 -17q25 -15 47 -38.5t38 -46t24.5 -40.5t5.5 -23q-3 -4 -20.5 -6t-43 1t-56.5 12t-60 27z" />
    <glyph glyph-name="oacute" unicode="&#xf3;" horiz-adv-x="576" 
d="M287 -13q-58 0 -106 18.5t-82 52t-53 81t-19 104.5t19 104t53.5 80.5t83 52.5t106.5 19t105.5 -19t81.5 -52.5t53 -81t19 -104.5t-19 -104t-53 -80.5t-82 -52t-107 -18.5zM288 98q29 0 54 11t43 30t28.5 45.5t10.5 57.5q0 32 -10 59t-28 46.5t-43 30.5t-55 11t-55 -11
t-43 -30.5t-28.5 -46t-10.5 -58.5q0 -31 10.5 -58t28.5 -46t43 -30t55 -11zM223 560q-3 5 5.5 23t24.5 40.5t38 46t47 38.5q26 17 50 17q27 0 45.5 -16t18.5 -39q0 -21 -13 -41.5t-36 -34.5q-29 -18 -60 -27t-56.5 -12t-43 -1t-20.5 6z" />
    <glyph glyph-name="ocircumflex" unicode="&#xf4;" horiz-adv-x="576" 
d="M287 -13q-58 0 -106 18.5t-82 52t-53 81t-19 104.5t19 104t53.5 80.5t83 52.5t106.5 19t105.5 -19t81.5 -52.5t53 -81t19 -104.5t-19 -104t-53 -80.5t-82 -52t-107 -18.5zM288 98q29 0 54 11t43 30t28.5 45.5t10.5 57.5q0 32 -10 59t-28 46.5t-43 30.5t-55 11t-55 -11
t-43 -30.5t-28.5 -46t-10.5 -58.5q0 -31 10.5 -58t28.5 -46t43 -30t55 -11zM290 645q-59 -101 -106 -101q-20 0 -33 12t-13 32q0 23 18.5 48t43 47t50 37.5t40.5 19.5q15 -4 40 -19.5t50 -37.5t43 -47t18 -48q0 -20 -12.5 -32t-32.5 -12q-49 0 -106 101z" />
    <glyph glyph-name="otilde" unicode="&#xf5;" horiz-adv-x="576" 
d="M287 -13q-58 0 -106 18.5t-82 52t-53 81t-19 104.5t19 104t53.5 80.5t83 52.5t106.5 19t105.5 -19t81.5 -52.5t53 -81t19 -104.5t-19 -104t-53 -80.5t-82 -52t-107 -18.5zM288 98q29 0 54 11t43 30t28.5 45.5t10.5 57.5q0 32 -10 59t-28 46.5t-43 30.5t-55 11t-55 -11
t-43 -30.5t-28.5 -46t-10.5 -58.5q0 -31 10.5 -58t28.5 -46t43 -30t55 -11zM171 547q-21 0 -34 14t-13 34q0 22 7 41t19.5 32.5t28.5 21.5t34 8q32 0 68 -17.5t72 -51.5q8 26 22.5 45.5t34.5 19.5q22 0 34.5 -14t12.5 -34q0 -22 -7 -41t-19.5 -32.5t-28.5 -21t-34 -7.5
q-32 0 -68 17t-72 51q-8 -26 -22.5 -45.5t-34.5 -19.5z" />
    <glyph glyph-name="odieresis" unicode="&#xf6;" horiz-adv-x="576" 
d="M287 -13q-58 0 -106 18.5t-82 52t-53 81t-19 104.5t19 104t53.5 80.5t83 52.5t106.5 19t105.5 -19t81.5 -52.5t53 -81t19 -104.5t-19 -104t-53 -80.5t-82 -52t-107 -18.5zM288 98q29 0 54 11t43 30t28.5 45.5t10.5 57.5q0 32 -10 59t-28 46.5t-43 30.5t-55 11t-55 -11
t-43 -30.5t-28.5 -46t-10.5 -58.5q0 -31 10.5 -58t28.5 -46t43 -30t55 -11zM393 544q-35 0 -54.5 18.5t-19.5 53.5t19.5 53.5t51.5 18.5q34 0 54 -18.5t20 -53.5t-19.5 -53.5t-51.5 -18.5zM190 544q-34 0 -54 18.5t-20 53.5t19.5 53.5t51.5 18.5q35 0 54.5 -18.5t19.5 -53.5
t-19.5 -53.5t-51.5 -18.5z" />
    <glyph glyph-name="oslash" unicode="&#xf8;" horiz-adv-x="576" 
d="M77 -58q-2 -2 -11 0t-19.5 8t-19 15.5t-8.5 22.5q0 9 5 20t18 25l43 47q-26 33 -39.5 74t-13.5 88q0 54 19.5 101t54 81.5t82 54.5t103.5 20q40 0 74.5 -10.5t64.5 -28.5l76 85q2 2 11 0t19.5 -8t19 -15.5t8.5 -21.5q0 -9 -5 -20.5t-17 -25.5l-46 -51q25 -32 38.5 -72.5
t13.5 -87.5q0 -54 -19.5 -100.5t-54 -81t-82 -54.5t-103.5 -20q-77 0 -137 37l-75 -82v0zM172 165l8.5 9t21.5 23.5t29.5 33t34.5 37.5q41 45 93 102q-31 22 -69 22q-30 0 -55.5 -11t-44 -31t-29 -47.5t-10.5 -59.5q0 -23 5.5 -42t15.5 -36zM290 95q30 0 55.5 11t44 31
t29 47t10.5 59q0 44 -22 77l-7.5 -9t-20.5 -23t-30 -32.5t-34 -37.5q-40 -45 -93 -102q14 -10 31.5 -15.5t36.5 -5.5z" />
    <glyph glyph-name="ugrave" unicode="&#xf9;" horiz-adv-x="581" 
d="M391 73q-26 -38 -65 -62t-96 -24q-48 0 -82.5 15.5t-56 43t-32 64.5t-10.5 79v236q0 38 17.5 53t44.5 15h15q28 0 46 -14.5t18 -53.5v-215q0 -49 23.5 -77t68.5 -28q35 0 62.5 17.5t42.5 46.5v256q0 38 17.5 53t45.5 15h14q29 0 46.5 -14.5t17.5 -53.5v-413
q0 -4 -15.5 -10t-37.5 -6q-13 0 -26.5 3.5t-25 12t-20 23.5t-12.5 38zM176 594q-23 14 -36 34.5t-13 41.5q0 23 18.5 39t45.5 16q24 0 50 -17q25 -15 47 -38.5t38 -46t24.5 -40.5t5.5 -23q-3 -4 -20.5 -6t-43 1t-56.5 12t-60 27z" />
    <glyph glyph-name="uacute" unicode="&#xfa;" horiz-adv-x="581" 
d="M391 73q-26 -38 -65 -62t-96 -24q-48 0 -82.5 15.5t-56 43t-32 64.5t-10.5 79v236q0 38 17.5 53t44.5 15h15q28 0 46 -14.5t18 -53.5v-215q0 -49 23.5 -77t68.5 -28q35 0 62.5 17.5t42.5 46.5v256q0 38 17.5 53t45.5 15h14q29 0 46.5 -14.5t17.5 -53.5v-413
q0 -4 -15.5 -10t-37.5 -6q-13 0 -26.5 3.5t-25 12t-20 23.5t-12.5 38zM229 560q-3 5 5.5 23t24.5 40.5t38 46t47 38.5q26 17 50 17q27 0 45.5 -16t18.5 -39q0 -21 -13 -41.5t-36 -34.5q-29 -18 -60 -27t-56.5 -12t-43 -1t-20.5 6z" />
    <glyph glyph-name="ucircumflex" unicode="&#xfb;" horiz-adv-x="581" 
d="M391 73q-26 -38 -65 -62t-96 -24q-48 0 -82.5 15.5t-56 43t-32 64.5t-10.5 79v236q0 38 17.5 53t44.5 15h15q28 0 46 -14.5t18 -53.5v-215q0 -49 23.5 -77t68.5 -28q35 0 62.5 17.5t42.5 46.5v256q0 38 17.5 53t45.5 15h14q29 0 46.5 -14.5t17.5 -53.5v-413
q0 -4 -15.5 -10t-37.5 -6q-13 0 -26.5 3.5t-25 12t-20 23.5t-12.5 38zM292 645q-59 -101 -106 -101q-20 0 -33 12t-13 32q0 23 18.5 48t43 47t50 37.5t40.5 19.5q15 -4 40 -19.5t50 -37.5t43 -47t18 -48q0 -20 -12.5 -32t-32.5 -12q-49 0 -106 101z" />
    <glyph glyph-name="udieresis" unicode="&#xfc;" horiz-adv-x="581" 
d="M391 73q-26 -38 -65 -62t-96 -24q-48 0 -82.5 15.5t-56 43t-32 64.5t-10.5 79v236q0 38 17.5 53t44.5 15h15q28 0 46 -14.5t18 -53.5v-215q0 -49 23.5 -77t68.5 -28q35 0 62.5 17.5t42.5 46.5v256q0 38 17.5 53t45.5 15h14q29 0 46.5 -14.5t17.5 -53.5v-413
q0 -4 -15.5 -10t-37.5 -6q-13 0 -26.5 3.5t-25 12t-20 23.5t-12.5 38zM395 544q-35 0 -54.5 18.5t-19.5 53.5t19.5 53.5t51.5 18.5q34 0 54 -18.5t20 -53.5t-19.5 -53.5t-51.5 -18.5zM192 544q-34 0 -54 18.5t-20 53.5t19.5 53.5t51.5 18.5q35 0 54.5 -18.5t19.5 -53.5
t-19.5 -53.5t-51.5 -18.5z" />
    <glyph glyph-name="yacute" unicode="&#xfd;" horiz-adv-x="531" 
d="M219 -192q-15 0 -29.5 5t-25 12t-16 13t-4.5 9l81 184q-17 2 -28 9t-18 22l-168 390q-1 3 5 10t16.5 13.5t25 12t30.5 5.5q25 0 45 -14t34 -56l106 -279l94 278q13 42 34 56.5t44 14.5q15 0 29 -5t25 -12t17 -13t5 -9l-222 -577q-16 -40 -36.5 -54.5t-43.5 -14.5z
M200 555q-3 5 5.5 23t24.5 40.5t38 46t47 38.5q26 17 50 17q27 0 45.5 -16t18.5 -39q0 -21 -13 -41.5t-36 -34.5q-29 -18 -60 -27t-56.5 -12t-43 -1t-20.5 6z" />
    <glyph glyph-name="thorn" unicode="&#xfe;" horiz-adv-x="610" 
d="M194 216q0 -26 9.5 -47.5t26 -37t39 -24t47.5 -8.5q57 0 91.5 39.5t34.5 103.5q0 65 -34.5 104.5t-90.5 39.5q-45 0 -76 -21.5t-47 -58.5v-90zM194 -127q0 -38 -17.5 -53t-44.5 -15h-15q-29 0 -46.5 14.5t-17.5 53.5v806q0 4 16 10t37 6q16 0 31.5 -5t28 -17.5
t20.5 -34.5t8 -56v-169q27 40 67 63t91 23q50 0 91.5 -18t71.5 -51.5t46.5 -80.5t16.5 -106q0 -58 -16.5 -105.5t-46.5 -81t-72 -51.5t-93 -18q-52 0 -92.5 22t-63.5 54v-190z" />
    <glyph glyph-name="ydieresis" unicode="&#xff;" horiz-adv-x="531" 
d="M219 -192q-15 0 -29.5 5t-25 12t-16 13t-4.5 9l81 184q-17 2 -28 9t-18 22l-168 390q-1 3 5 10t16.5 13.5t25 12t30.5 5.5q25 0 45 -14t34 -56l106 -279l94 278q13 42 34 56.5t44 14.5q15 0 29 -5t25 -12t17 -13t5 -9l-222 -577q-16 -40 -36.5 -54.5t-43.5 -14.5z
M372 544q-35 0 -54.5 18.5t-19.5 53.5t19.5 53.5t51.5 18.5q34 0 54 -18.5t20 -53.5t-19.5 -53.5t-51.5 -18.5zM169 544q-34 0 -54 18.5t-20 53.5t19.5 53.5t51.5 18.5q35 0 54.5 -18.5t19.5 -53.5t-19.5 -53.5t-51.5 -18.5z" />
    <glyph glyph-name="dotlessi" unicode="&#x131;" horiz-adv-x="255" 
d="M121 -4q-28 0 -46 14t-18 53v362q0 38 18 53t45 15h15q29 0 46 -14.5t17 -53.5v-362q0 -38 -17.5 -52.5t-44.5 -14.5h-15v0z" />
    <glyph glyph-name="Lslash" unicode="&#x141;" horiz-adv-x="565" 
d="M243 129h237q68 0 68 -61v-4q0 -64 -68 -64h-308q-36 0 -56.5 21t-20.5 60v130l-58 -18q-2 -1 -6.5 3.5t-9 13t-8 19t-3.5 21.5q0 12 3 22t11 19t23.5 17.5t39.5 15.5l8 2v258q0 67 63 67h20q65 0 65 -67v-213l158 49q3 1 7 -3.5t8.5 -13t7.5 -19t3 -21.5t-3 -21.5
t-11.5 -19.5t-23.5 -17t-38 -15l-108 -33v-128z" />
    <glyph glyph-name="lslash" unicode="&#x142;" horiz-adv-x="352" 
d="M245 61q0 -38 -17.5 -53t-45.5 -15h-14q-29 0 -46.5 14.5t-17.5 53.5v156l-68 -20q-2 -1 -6.5 4t-9 13.5t-7.5 19t-3 20.5q0 11 2.5 21t11 19t23.5 17.5t39 15.5l18 5v347q0 4 15.5 10t37.5 6q15 0 31 -5t28.5 -17.5t20.5 -34.5t8 -56v-207l71 22q3 1 7.5 -4t9 -13
t7.5 -18.5t3 -21.5q0 -22 -14.5 -40.5t-61.5 -32.5l-22 -7v-199z" />
    <glyph glyph-name="OE" unicode="&#x152;" horiz-adv-x="1030" 
d="M368 -13q-73 0 -134.5 24.5t-105.5 69t-68.5 106.5t-24.5 136t25 136t69.5 106.5t105.5 69.5t134 25q55 0 101 -13h456q35 0 51.5 -16.5t16.5 -45.5v-5q0 -62 -68 -62h-292q26 -23 41.5 -55t19.5 -73h154q35 0 51.5 -15t16.5 -42v-4q0 -60 -68 -60h-153q-6 -89 -63 -141
h299q67 0 67 -58v-6q0 -64 -67 -64h-462q-46 -13 -102 -13zM369 118q42 0 76 14.5t59 41.5t38.5 65t13.5 84t-14 84t-38.5 65.5t-59 42.5t-76.5 15t-76 -14.5t-58.5 -41.5t-38 -65t-13.5 -85q0 -46 13.5 -84t38.5 -65t59 -42t76 -15z" />
    <glyph glyph-name="oe" unicode="&#x153;" horiz-adv-x="947" 
d="M791 288q-2 51 -32.5 82t-81.5 31q-50 0 -84 -31.5t-41 -81.5h239zM288 98q29 0 54 11t43 30t28.5 45.5t10.5 57.5q0 32 -10 59t-28 46.5t-43 30.5t-55 11t-55 -11t-43 -30.5t-28.5 -46t-10.5 -58.5q0 -31 10.5 -58t28.5 -46t43 -30t55 -11zM481 78q-32 -43 -81.5 -67
t-112.5 -24q-58 0 -106 18.5t-82 52t-53 81t-19 104.5t19 104t53.5 80.5t83 52.5t106.5 19q63 0 112.5 -24.5t81.5 -69.5q33 45 83 69.5t113 24.5q54 0 98.5 -18t77 -50.5t50 -77t17.5 -98.5v-10q-1 -19 -7.5 -29t-26.5 -10h-336q8 -55 46 -85.5t95 -30.5q56 0 88.5 21.5
t49.5 50.5q0 1 11 -1t23.5 -9t23 -20t10.5 -34q0 -19 -14 -39t-40.5 -36t-66 -26t-90.5 -10q-71 0 -123 23t-84 68z" />
    <glyph glyph-name="Scaron" unicode="&#x160;" horiz-adv-x="569" 
d="M276 -13q-64 0 -111.5 12t-78 31t-45.5 42t-15 45q0 15 8 29t18 24.5t19 16.5t11 4q15 -18 35.5 -34t45.5 -28t53.5 -19.5t58.5 -7.5q58 0 88 20.5t30 58.5q0 22 -11.5 35.5t-30.5 22t-44.5 14.5t-54.5 12q-39 9 -76.5 22t-67.5 35t-48 55.5t-18 82.5q0 45 17.5 82
t50.5 63t79.5 40.5t104.5 14.5q59 0 102.5 -10.5t72.5 -27.5t43.5 -38t14.5 -42q0 -17 -9 -31.5t-19.5 -25t-20 -16t-10.5 -4.5q-29 34 -74.5 57t-97.5 23q-54 0 -83 -21t-29 -56q0 -21 10.5 -33.5t28.5 -20.5t43.5 -13t55.5 -12q44 -10 83.5 -24.5t69.5 -38t48 -56
t18 -78.5q0 -97 -68 -151t-197 -54zM292 787q59 101 106 101q20 0 32.5 -12.5t12.5 -31.5q0 -23 -18 -48t-43 -47t-50 -38t-40 -20q-15 4 -40 20t-50 38t-43 47t-18 48q0 19 12.5 31.5t32.5 12.5q49 0 106 -101z" />
    <glyph glyph-name="scaron" unicode="&#x161;" horiz-adv-x="476" 
d="M232 -11q-107 0 -159.5 32t-52.5 74q0 14 6.5 25t14 18.5t14.5 11.5t8 3q26 -27 66.5 -46t94.5 -19q42 0 64 12t22 35q0 14 -7 22.5t-20.5 14.5t-33 10.5t-44.5 9.5q-25 6 -55 14t-56 24t-43.5 42t-17.5 68q0 36 14.5 65t41 49.5t64.5 32t84 11.5q99 0 148 -31t49 -73
q0 -14 -6.5 -25.5t-15 -19.5t-15.5 -12t-8 -3q-25 29 -62.5 47t-80.5 18q-40 0 -61.5 -12.5t-21.5 -35.5q0 -13 7 -21.5t20.5 -14t32.5 -10t44 -9.5q26 -6 57.5 -14t58.5 -24.5t45.5 -42.5t18.5 -68q0 -74 -57 -116t-158 -42zM234 626q59 101 106 101q20 0 32.5 -12.5
t12.5 -31.5q0 -23 -18 -48t-43 -47t-50 -38t-40 -20q-15 4 -40 20t-50 38t-43 47t-18 48q0 19 12.5 31.5t32.5 12.5q49 0 106 -101z" />
    <glyph glyph-name="Ydieresis" unicode="&#x178;" horiz-adv-x="603" 
d="M376 63q0 -67 -65 -67h-20q-63 0 -63 67v197l-226 334q-2 3 2.5 12.5t15.5 19t30 17.5t46 8q20 0 38 -12.5t32 -38.5l136 -222l138 221q17 29 35 40.5t36 11.5q25 0 42.5 -8t29 -18t16 -19t2.5 -12l-225 -334v-197zM404 705q-35 0 -54.5 18.5t-19.5 53.5t19.5 53.5
t51.5 18.5q34 0 54 -18.5t20 -53.5t-19.5 -53.5t-51.5 -18.5zM201 705q-34 0 -54 18.5t-20 53.5t19.5 53.5t51.5 18.5q35 0 54.5 -18.5t19.5 -53.5t-19.5 -53.5t-51.5 -18.5z" />
    <glyph glyph-name="Zcaron" unicode="&#x17d;" horiz-adv-x="614" 
d="M123 0q-45 0 -64 19t-19 43v10q0 16 3 28t9 23t15 22t21 26l296 352h-274q-32 0 -48.5 13.5t-16.5 44.5v7q0 59 65 59h378q45 0 64 -19t19 -43v-9q0 -32 -13 -52.5t-34 -44.5l-301 -355h293q32 0 49 -13.5t17 -44.5v-7q0 -59 -66 -59h-393v0zM299 787q59 101 106 101
q20 0 32.5 -12.5t12.5 -31.5q0 -23 -18 -48t-43 -47t-50 -38t-40 -20q-15 4 -40 20t-50 38t-43 47t-18 48q0 19 12.5 31.5t32.5 12.5q49 0 106 -101z" />
    <glyph glyph-name="zcaron" unicode="&#x17e;" horiz-adv-x="494" 
d="M83 0q-29 0 -41 15.5t-12 34.5v8q0 24 7.5 36t23.5 31l218 254h-189q-57 0 -57 51v7q0 51 57 51h314q29 0 41.5 -15t12.5 -34v-7q0 -23 -7 -35t-24 -30l-224 -258h207q57 0 57 -51v-6q0 -52 -57 -52h-327v0zM241 626q59 101 106 101q20 0 32.5 -12.5t12.5 -31.5
q0 -23 -18 -48t-43 -47t-50 -38t-40 -20q-15 4 -40 20t-50 38t-43 47t-18 48q0 19 12.5 31.5t32.5 12.5q49 0 106 -101z" />
    <glyph glyph-name="florin" unicode="&#x192;" horiz-adv-x="451" 
d="M85 317q-59 0 -59 51v9q0 50 59 50h47l10 58q16 93 62 133.5t114 40.5q63 0 96 -22.5t33 -60.5q0 -15 -6.5 -27.5t-14 -21.5t-14 -13.5t-6.5 -3.5q-9 13 -25.5 22.5t-39.5 9.5q-28 0 -42.5 -17.5t-21.5 -57.5l-8 -40h70q59 0 59 -52v-9q0 -49 -59 -49h-84l-42 -229
q-5 -30 -15.5 -50t-23 -31t-27 -15.5t-27.5 -4.5q-29 0 -46.5 9.5t-16.5 13.5l55 307h-27z" />
    <glyph glyph-name="circumflex" unicode="&#x2c6;" 
d="M250 645q-59 -101 -106 -101q-20 0 -33 12t-13 32q0 23 18.5 48t43 47t50 37.5t40.5 19.5q15 -4 40 -19.5t50 -37.5t43 -47t18 -48q0 -20 -12.5 -32t-32.5 -12q-49 0 -106 101z" />
    <glyph glyph-name="caron" unicode="&#x2c7;" 
d="M250 626q59 101 106 101q20 0 32.5 -12.5t12.5 -31.5q0 -23 -18 -48t-43 -47t-50 -38t-40 -20q-15 4 -40 20t-50 38t-43 47t-18 48q0 19 12.5 31.5t32.5 12.5q49 0 106 -101z" />
    <glyph glyph-name="breve" unicode="&#x2d8;" 
d="M250 544q-29 0 -58.5 11t-53.5 28t-39 38t-15 42q0 20 13.5 34t36.5 14q12 0 26.5 -7.5t30 -20.5t31.5 -29t29 -34q13 18 28 34t30.5 29t30 20.5t26.5 7.5q23 0 36.5 -14t13.5 -34q0 -21 -15.5 -42.5t-39.5 -38.5t-53.5 -27.5t-57.5 -10.5z" />
    <glyph glyph-name="dotaccent" unicode="&#x2d9;" 
d="M250 544q-37 0 -58.5 21.5t-21.5 53.5t22 54t59 22q36 0 57.5 -22t21.5 -54t-21.5 -53.5t-58.5 -21.5z" />
    <glyph glyph-name="ring" unicode="&#x2da;" 
d="M249 544q-57 0 -91 34.5t-34 87.5q0 26 9.5 48t26 38.5t40 26t50.5 9.5q57 0 91 -34.5t34 -87.5t-35 -87.5t-91 -34.5zM249 608q24 0 39.5 16.5t15.5 41.5t-16 42t-39 17t-38.5 -17t-15.5 -42q0 -24 15.5 -41t38.5 -17z" />
    <glyph glyph-name="ogonek" unicode="&#x2db;" 
d="M289 -204q-17 0 -28 3t-18.5 9t-12 14.5t-9.5 19.5l-71 158h81l94 -103q17 -17 27 -29t10 -26v-5q0 -20 -15.5 -30.5t-42.5 -10.5h-15v0z" />
    <glyph glyph-name="tilde" unicode="&#x2dc;" 
d="M130 547q-21 0 -34 14t-13 34q0 22 7 41t19.5 32.5t28.5 21.5t34 8q32 0 68 -17.5t72 -51.5q8 26 22.5 45.5t34.5 19.5q22 0 34.5 -14t12.5 -34q0 -22 -7 -41t-19.5 -32.5t-28.5 -21t-34 -7.5q-32 0 -68 17t-72 51q-8 -26 -22.5 -45.5t-34.5 -19.5z" />
    <glyph glyph-name="hungarumlaut" unicode="&#x2dd;" 
d="M281 560q-3 5 5.5 23t24.5 40.5t38 46t47 38.5q26 17 50 17q27 0 45.5 -16t18.5 -39q0 -21 -13 -41.5t-36 -34.5q-29 -18 -60 -27t-56.5 -12t-43 -1t-20.5 6zM61 560q-3 5 5.5 23t24.5 40.5t38 46t47 38.5q26 17 50 17q27 0 45.5 -16t18.5 -39q0 -21 -13 -41.5t-36 -34.5
q-29 -18 -60 -27t-56.5 -12t-43 -1t-20.5 6z" />
    <glyph glyph-name="Delta" unicode="&#x394;" horiz-adv-x="550" 
d="M394 288q-2 51 -32.5 82t-81.5 31q-50 0 -84 -31.5t-41 -81.5h239zM155 206q8 -55 46 -85.5t95 -30.5q56 0 88.5 21.5t49.5 50.5q0 1 11 -1t23.5 -9t23 -20t10.5 -34q0 -19 -14 -39t-40.5 -36t-66 -26t-90.5 -10q-60 0 -108.5 18t-83 51t-53.5 79.5t-19 104.5
q0 56 19 103.5t53 82t81 54t102 19.5q54 0 98.5 -18t77 -50.5t50 -77t17.5 -98.5v-10q-1 -19 -7.5 -29t-26.5 -10h-336v0z" />
    <glyph glyph-name="Delta" unicode="&#x2206;" horiz-adv-x="550" 
d="M394 288q-2 51 -32.5 82t-81.5 31q-50 0 -84 -31.5t-41 -81.5h239zM155 206q8 -55 46 -85.5t95 -30.5q56 0 88.5 21.5t49.5 50.5q0 1 11 -1t23.5 -9t23 -20t10.5 -34q0 -19 -14 -39t-40.5 -36t-66 -26t-90.5 -10q-60 0 -108.5 18t-83 51t-53.5 79.5t-19 104.5
q0 56 19 103.5t53 82t81 54t102 19.5q54 0 98.5 -18t77 -50.5t50 -77t17.5 -98.5v-10q-1 -19 -7.5 -29t-26.5 -10h-336v0z" />
    <glyph glyph-name="Omega" unicode="&#x3a9;" horiz-adv-x="581" 
d="M387 95q-26 -35 -64 -58t-93 -23q-48 0 -82.5 16t-56 43t-32 64t-10.5 79v209q0 38 17.5 53t44.5 15h15q28 0 46 -14.5t18 -53.5v-187q0 -50 22.5 -79.5t69.5 -29.5q35 0 62.5 18t42.5 46v187q0 34 8 56t20.5 34.5t28 17.5t31.5 5q21 0 37 -6.5t16 -9.5v-438
q0 -236 -259 -236q-56 0 -97 12t-68 30.5t-40 41.5t-13 44q0 16 8 29t18.5 22t19.5 12.5t10 2.5q13 -18 26.5 -32.5t31 -24.5t41 -15.5t54.5 -5.5q64 0 95.5 28t31.5 93v55v0z" />
    <glyph glyph-name="Omega" unicode="&#x2126;" horiz-adv-x="581" 
d="M387 95q-26 -35 -64 -58t-93 -23q-48 0 -82.5 16t-56 43t-32 64t-10.5 79v209q0 38 17.5 53t44.5 15h15q28 0 46 -14.5t18 -53.5v-187q0 -50 22.5 -79.5t69.5 -29.5q35 0 62.5 18t42.5 46v187q0 34 8 56t20.5 34.5t28 17.5t31.5 5q21 0 37 -6.5t16 -9.5v-438
q0 -236 -259 -236q-56 0 -97 12t-68 30.5t-40 41.5t-13 44q0 16 8 29t18.5 22t19.5 12.5t10 2.5q13 -18 26.5 -32.5t31 -24.5t41 -15.5t54.5 -5.5q64 0 95.5 28t31.5 93v55v0z" />
    <glyph glyph-name="pi" unicode="&#x3c0;" horiz-adv-x="746" 
d="M373 -13q-74 0 -135 25t-105 69.5t-68.5 106.5t-24.5 135t25 134.5t69 106.5t105.5 70.5t134.5 25.5q74 0 135 -25t105 -69.5t68.5 -106t24.5 -134.5t-25 -135t-69 -107t-105.5 -70.5t-134.5 -25.5zM374 46q60 0 109.5 20.5t85 57.5t55 87.5t19.5 111.5q0 60 -20 111
t-56 88t-85.5 58t-108.5 21q-60 0 -110 -20.5t-85 -57t-54.5 -87.5t-19.5 -112q0 -60 20 -111t56 -88t85.5 -58t108.5 -21zM388 312q28 0 42.5 14t14.5 39t-15.5 39t-45.5 14h-49v-106h53zM336 179q0 -43 -40 -43h-14q-40 0 -40 43v258q0 52 49 52h95q73 0 111.5 -31.5
t38.5 -91.5q0 -61 -37 -92.5t-109 -31.5h-54v-63z" />
    <glyph glyph-name="endash" unicode="&#x2013;" horiz-adv-x="556" 
d="M94 185q-30 0 -44 15.5t-14 38.5v12q0 22 14 37.5t44 15.5h363q31 0 44.5 -15.5t13.5 -37.5v-12q0 -23 -13.5 -38.5t-44.5 -15.5h-363v0z" />
    <glyph glyph-name="emdash" unicode="&#x2014;" horiz-adv-x="720" 
d="M94 185q-30 0 -44 15.5t-14 38.5v12q0 22 14 37.5t44 15.5h532q31 0 44.5 -15.5t13.5 -37.5v-12q0 -23 -13.5 -38.5t-44.5 -15.5h-532v0z" />
    <glyph glyph-name="quoteleft" unicode="&#x2018;" horiz-adv-x="234" 
d="M86 394q-26 0 -41.5 15t-15.5 47v5q0 18 7.5 36t25.5 39l79 110q9 10 22.5 12t26 -2.5t20 -15.5t3.5 -26l-45 -158q-4 -15 -8.5 -27t-12 -19.5t-18.5 -11.5t-28 -4h-15v0z" />
    <glyph glyph-name="quoteright" unicode="&#x2019;" horiz-adv-x="234" 
d="M93 407q-9 -10 -22.5 -11.5t-25.5 3t-19.5 15t-3.5 25.5l45 159q4 15 8 26.5t11.5 19t18.5 11.5t29 4h14q26 0 41.5 -15t15.5 -46v-6q0 -38 -32 -75l-80 -110v0z" />
    <glyph glyph-name="quotesinglbase" unicode="&#x201a;" horiz-adv-x="234" 
d="M87 -109q-9 -10 -22.5 -11.5t-25.5 3t-19.5 15t-3.5 25.5l45 159q4 15 8 26.5t11.5 19t18.5 11.5t29 4h14q26 0 41.5 -15t15.5 -46v-6q0 -38 -32 -75l-80 -110v0z" />
    <glyph glyph-name="quotedblleft" unicode="&#x201c;" horiz-adv-x="435" 
d="M287 394q-26 0 -41 15t-15 47v5q0 38 32 75l79 110q9 10 23 12t26 -2.5t19 -15.5t4 -26l-45 -158q-8 -32 -20 -47t-47 -15h-15v0zM85 394q-26 0 -41 15t-15 47v5q0 38 33 75l79 110q9 10 23 12t26 -2.5t19.5 -15.5t3.5 -26l-46 -158q-4 -16 -8 -27.5t-11.5 -19
t-18.5 -11.5t-28 -4h-16v0z" />
    <glyph glyph-name="quotedblright" unicode="&#x201d;" horiz-adv-x="435" 
d="M294 407q-9 -10 -22.5 -11.5t-26 3t-20 15t-3.5 25.5l46 159q8 31 20 46t46 15h16q26 0 41 -15t15 -46v-6q0 -37 -33 -75l-79 -110v0zM93 407q-9 -10 -22.5 -11.5t-25.5 3t-19.5 15t-4.5 25.5l45 159q8 31 20 46t47 15h15q26 0 41 -15t15 -46v-6q0 -38 -32 -75l-79 -110
v0z" />
    <glyph glyph-name="quotedblbase" unicode="&#x201e;" horiz-adv-x="435" 
d="M288 -109q-9 -10 -22.5 -11.5t-26 3t-20 15t-3.5 25.5l46 159q8 31 20 46t46 15h16q26 0 41 -15t15 -46v-6q0 -37 -33 -75l-79 -110v0zM87 -109q-9 -10 -22.5 -11.5t-25.5 3t-19.5 15t-4.5 25.5l45 159q8 31 20 46t47 15h15q26 0 41 -15t15 -46v-6q0 -38 -32 -75
l-79 -110v0z" />
    <glyph glyph-name="dagger" unicode="&#x2020;" horiz-adv-x="528" 
d="M198 596q-8 33 8.5 47t57.5 14q42 0 58 -14t9 -47l-30 -161l143 30q32 8 47 -12.5t15 -55.5t-14.5 -56t-47.5 -13l-146 32q21 -24 28.5 -51t5.5 -59l-14 -371q-2 -23 -12.5 -29.5t-28.5 -6.5h-26q-18 0 -28 6.5t-12 29.5l-14 371q-2 32 5 58.5t28 51.5l-146 -32
q-33 -8 -47.5 13t-14.5 56q0 38 13.5 57t48.5 11l144 -31z" />
    <glyph glyph-name="daggerdbl" unicode="&#x2021;" horiz-adv-x="528" 
d="M198 596q-8 33 8.5 47t57.5 14q42 0 58 -14t9 -47l-30 -152l143 30q32 8 47 -12.5t15 -55.5t-14.5 -56t-47.5 -13l-148 32q23 -24 30.5 -50.5t5.5 -59.5l-4 -106l116 26q33 8 47.5 -13t14.5 -56t-15 -55.5t-47 -12.5l-119 26l-7 -189q-2 -23 -12.5 -29.5t-28.5 -6.5h-26
q-18 0 -28 6.5t-12 29.5l-7 189l-120 -26q-35 -8 -48.5 11t-13.5 57q0 35 14.5 56t47.5 13q33 -7 59 -13q22 -5 40 -9t18 -5l-4 107q-2 33 5.5 59.5t30.5 51.5l-6 -1.5t-16.5 -3.5t-24 -5t-27.5 -6q-33 -7 -75 -17q-33 -8 -47.5 13t-14.5 56q0 38 13.5 57t48.5 11l144 -31z
" />
    <glyph glyph-name="bullet" unicode="&#x2022;" horiz-adv-x="347" 
d="M174 116q-27 0 -50.5 10t-41 27t-27 41t-9.5 51t9.5 51t27 42t41 28t50.5 10t50.5 -10t40.5 -28t27 -42t10 -51t-10 -50.5t-27.5 -41t-40.5 -27.5t-50 -10z" />
    <glyph glyph-name="ellipsis" unicode="&#x2026;" horiz-adv-x="716" 
d="M587 -7q-67 0 -67 66v14q0 66 67 66h17q68 0 68 -66v-14q0 -66 -68 -66h-17v0zM348 -7q-66 0 -66 66v14q0 66 66 66h18q68 0 68 -66v-14q0 -66 -68 -66h-18v0zM109 -7q-66 0 -66 66v14q0 66 66 66h18q68 0 68 -66v-14q0 -66 -68 -66h-18v0z" />
    <glyph glyph-name="perthousand" unicode="&#x2030;" horiz-adv-x="1108" 
d="M182 340q-36 0 -66.5 11.5t-52 31.5t-33.5 48.5t-12 62.5v8q0 34 12 62.5t34 49t52.5 32t66.5 11.5t66 -11.5t51.5 -31.5t33.5 -48.5t12 -62.5v-8q0 -34 -12 -62.5t-34 -49t-52 -32t-66 -11.5zM134 -11q-2 -2 -12 0.5t-21.5 9t-20.5 16.5t-9 23t6 24t21 27l503 570
q2 2 12.5 0t21.5 -8t20 -16t9 -24q0 -11 -6 -23.5t-20 -28.5l-504 -570v0zM926 -9q-36 0 -66.5 11.5t-52 31.5t-33.5 48.5t-12 62.5v8q0 34 12 62.5t34 49t52.5 32t66.5 11.5t66 -11.5t51.5 -31.5t33.5 -48.5t12 -62.5v-8q0 -34 -12 -62.5t-34 -49t-52 -32t-66 -11.5z
M556 -9q-36 0 -66.5 11.5t-52 31.5t-33.5 48.5t-12 62.5v8q0 34 12 62.5t34 49t52.5 32t66.5 11.5t66 -11.5t51.5 -31.5t33.5 -48.5t12 -62.5v-8q0 -34 -12 -62.5t-34 -49t-52 -32t-66 -11.5zM183 417q29 0 47.5 19.5t18.5 54.5v15q0 35 -19 54.5t-48 19.5t-47.5 -19.5
t-18.5 -54.5v-15q0 -35 19 -54.5t48 -19.5zM927 69q29 0 47.5 19t18.5 54v15q0 35 -19 55t-48 20t-47.5 -20t-18.5 -55v-15q0 -34 19 -53.5t48 -19.5zM557 69q28 0 47 19t19 54v15q0 35 -19 55t-48 20t-47.5 -20t-18.5 -55v-15q0 -34 19 -53.5t48 -19.5z" />
    <glyph glyph-name="guilsinglleft" unicode="&#x2039;" horiz-adv-x="318" 
d="M147 245q22 -14 46 -30t43.5 -33t32.5 -33.5t13 -30.5v-4q0 -21 -13 -35.5t-38 -14.5h-2q-18 0 -39.5 12t-43.5 31t-42.5 41t-36 42.5t-25 35.5t-9.5 19t9.5 19t25 35.5t36 42.5t42.5 41t43.5 31t39.5 12h2q25 0 38 -14t13 -36v-3q0 -15 -13 -31.5t-32.5 -33.5t-43.5 -33
t-46 -30z" />
    <glyph glyph-name="guilsinglright" unicode="&#x203a;" horiz-adv-x="318" 
d="M172 245q-22 14 -46 30t-43.5 33t-32.5 33.5t-13 31.5v3q0 22 13 36t37 14h2q18 0 40 -12t43.5 -31t42 -41t36 -42.5t25 -35.5t9.5 -19t-9.5 -19t-25 -35.5t-36 -42.5t-42 -41t-43 -31t-40.5 -12h-2q-24 0 -37 14.5t-13 35.5v4q0 14 13 30.5t32.5 33.5t43.5 33t46 30z
" />
    <glyph glyph-name="fraction" unicode="&#x2044;" horiz-adv-x="683" 
d="M107 -9q-3 -3 -14 -2t-23.5 6.5t-22 15t-9.5 23.5q0 13 6 23.5t20 27.5l506 574q3 3 14 2t23.5 -6t22 -15t9.5 -24q0 -11 -6 -23t-20 -28l-506 -574v0z" />
    <glyph glyph-name="fraction" unicode="&#x2215;" horiz-adv-x="683" 
d="M107 -9q-3 -3 -14 -2t-23.5 6.5t-22 15t-9.5 23.5q0 13 6 23.5t20 27.5l506 574q3 3 14 2t23.5 -6t22 -15t9.5 -24q0 -11 -6 -23t-20 -28l-506 -574v0z" />
    <glyph glyph-name="Euro" unicode="&#x20ac;" horiz-adv-x="631" 
d="M73 353q-26 0 -38 11.5t-12 28.5v10q0 17 12 28t38 11h44q23 103 94.5 160.5t177.5 57.5q50 0 90 -11.5t67.5 -29.5t42 -41.5t14.5 -47.5q0 -19 -10 -33.5t-23 -23t-23.5 -12t-12.5 -1.5q-27 39 -59.5 59.5t-85.5 20.5q-48 0 -81.5 -25t-49.5 -73h159q26 0 38 -11t12 -28
v-10q0 -17 -12 -28.5t-38 -11.5h-171v-58h171q26 0 38 -11t12 -28v-10q0 -17 -12 -28t-38 -11h-159q16 -48 51 -74t84 -26q53 0 85 22t57 63q2 2 13.5 -1t24 -12t23 -23t10.5 -34q0 -21 -13 -45t-39.5 -44t-67 -33t-94.5 -13q-109 0 -181.5 57.5t-94.5 162.5h-43
q-26 0 -38 11t-12 28v10q0 17 12 28t38 11h35v58h-35z" />
    <glyph glyph-name="trademark" unicode="&#x2122;" horiz-adv-x="690" 
d="M368 331q-33 0 -33 39v240q0 41 36 41h29q17 0 25 -5.5t14 -18.5l55 -136l56 136q7 14 15 19t23 5h29q36 0 36 -41v-240q0 -19 -7.5 -29t-26.5 -10h-12q-34 0 -34 39v160l-43 -117q-2 -8 -7 -13t-29 -5q-25 0 -29 5t-7 13l-44 115v-158q0 -19 -7 -29t-25 -10h-14v0z
M51 573q-38 0 -38 37v3q0 35 38 35h207q38 0 38 -35v-3q0 -37 -38 -37h-61v-203q0 -39 -37 -39h-12q-35 0 -35 39v203h-62z" />
    <glyph glyph-name="partialdiff" unicode="&#x2202;" horiz-adv-x="605" 
d="M411 318q-17 32 -48 51.5t-74 19.5q-57 0 -91.5 -37t-34.5 -95q0 -60 33.5 -95.5t90.5 -35.5q26 0 48.5 8t39 23t26.5 35.5t10 45.5v80v0zM416 427q11 39 34 52.5t48 13.5q22 0 38 -6.5t16 -9.5v-428q0 -126 -66 -186t-200 -60q-56 0 -98.5 11.5t-70.5 30t-42 41.5
t-14 45q0 18 8.5 31t18.5 21.5t19 12t10 1.5q24 -35 61.5 -56.5t99.5 -21.5q133 0 133 126v57q-26 -39 -66 -61.5t-94 -22.5q-51 0 -92 16.5t-70.5 47.5t-45.5 75.5t-16 100.5q0 53 17 97t47.5 76t72.5 50t91 18q55 0 97 -20t64 -52z" />
    <glyph glyph-name="product" unicode="&#x220f;" horiz-adv-x="662" 
d="M463 99q-26 -49 -75 -79.5t-115 -30.5q-115 0 -168 59.5t-53 187.5v350q0 68 65 68h18q65 0 65 -68v-342q0 -72 27.5 -103t88.5 -31q47 0 85.5 26t55.5 63v387q0 68 63 68h20q65 0 65 -68v-575q0 -4 -16 -10t-38 -6q-15 0 -30 4.5t-27 16t-20.5 32t-10.5 51.5z" />
    <glyph glyph-name="summation" unicode="&#x2211;" horiz-adv-x="606" 
d="M347 387q0 68 59 68h13q32 0 45 -17.5t13 -50.5v-117h50q34 0 49 -12.5t15 -40.5v-4q0 -29 -15 -42t-49 -13h-50v-97q0 -34 -14 -51t-46 -17h-14q-30 0 -43 17t-13 51v97h-238q-43 0 -64 18.5t-21 45.5v19q0 11 2.5 21t7 21t11.5 24t17 31l144 255q19 37 40.5 49.5
t44.5 12.5q16 0 29.5 -5.5t23.5 -12.5t15.5 -13.5t4.5 -8.5l-201 -349h184v121z" />
    <glyph glyph-name="radical" unicode="&#x221a;" horiz-adv-x="724" 
d="M362 347q7 26 19.5 52t32 46.5t48 33.5t66.5 13h6q36 0 65.5 -12.5t50.5 -35t32.5 -53.5t11.5 -68v-6q0 -62 -35.5 -108t-87 -83.5t-108.5 -69.5t-101 -66q-29 23 -65 44.5t-72.5 44t-71.5 47t-62 53.5t-43.5 63t-16.5 75v6q0 37 11.5 68t32.5 53.5t50.5 35t65.5 12.5h6
q38 0 66 -13t48 -33.5t32 -46.5t19 -52z" />
    <glyph glyph-name="infinity" unicode="&#x221e;" horiz-adv-x="468" 
d="M95 521q-68 0 -68 62v4q0 60 68 60h278q68 0 68 -60v-4q0 -62 -68 -62h-64v-395h64q68 0 68 -63v-4q0 -59 -68 -59h-278q-68 0 -68 59v4q0 63 68 63h67v395h-67z" />
    <glyph glyph-name="integral" unicode="&#x222b;" horiz-adv-x="620" 
d="M237 241q-197 38 -197 282v63q0 34 17 51t47 17h19q64 0 64 -68v-66q0 -163 124 -163q63 0 93 39.5t30 123.5v66q0 68 64 68h19q63 0 63 -68v-62q0 -245 -195 -283v-180q0 -68 -66 -68h-21q-61 0 -61 68v180v0z" />
    <glyph glyph-name="lessequal" unicode="&#x2264;" horiz-adv-x="255" 
d="M128 569q-37 0 -58 19t-21 53q0 33 21 52t58 19t57.5 -18.5t20.5 -52.5t-20.5 -53t-57.5 -19zM121 -195q-28 0 -46 14.5t-18 53.5v552q0 38 18 53t45 15h15q29 0 46 -14.5t17 -53.5v-552q0 -38 -17.5 -53t-44.5 -15h-15v0z" />
    <glyph glyph-name="fi" unicode="&#xfb01;" horiz-adv-x="637" 
d="M503 -4q-29 0 -47 14t-18 53v362q0 38 18 53t46 15h14q29 0 46 -14.5t17 -53.5v-362q0 -38 -17 -52.5t-45 -14.5h-14v0zM65 378q-59 0 -59 52v8q0 50 59 50h40v26q0 51 12 86.5t34 58t53.5 32.5t69.5 10q65 0 94.5 -23.5t29.5 -53.5q0 -13 -4.5 -24t-10 -18.5t-10 -11.5
t-5.5 -3q-11 10 -28.5 18t-38.5 8q-31 0 -45.5 -18.5t-14.5 -60.5v-26h63q59 0 59 -52v-9q0 -49 -59 -49h-58v-315q0 -39 -17 -53t-46 -14h-15q-27 0 -45 14.5t-18 52.5v315h-40zM510 569q-37 0 -58 19t-21 53q0 33 20.5 52t57.5 19t58 -18.5t21 -52.5t-21 -53t-57 -19z" />
    <glyph glyph-name="fl" unicode="&#xfb02;" horiz-adv-x="637" 
d="M503 -4q-29 0 -47 14t-18 53v616q0 4 16 10t37 6q16 0 31.5 -5t28 -17.5t20.5 -34.5t8 -56v-519q0 -38 -17 -52.5t-45 -14.5h-14v0zM65 378q-59 0 -59 52v8q0 50 59 50h40v26q0 51 12 86.5t34 58t53.5 32.5t69.5 10q65 0 94.5 -23.5t29.5 -53.5q0 -13 -4.5 -24t-10 -18.5
t-10 -11.5t-5.5 -3q-11 10 -28.5 18t-38.5 8q-31 0 -45.5 -18.5t-14.5 -60.5v-26h63q59 0 59 -52v-9q0 -49 -59 -49h-58v-315q0 -39 -17 -53t-46 -14h-15q-27 0 -45 14.5t-18 52.5v315h-40z" />
    <glyph glyph-name="apple" horiz-adv-x="758" 
d="M289 24l-110 -43q-15 -6 -28.5 -3.5t-22 11.5t-11.5 22.5t3 28.5l42 111l-108 48q-15 7 -22.5 18t-7.5 23t7.5 23.5t22.5 18.5l108 48l-42 110q-6 16 -3 29.5t11.5 22.5t22 11.5t28.5 -3.5l110 -43l48 109q7 15 18.5 22t23.5 7t23.5 -7t18.5 -22l48 -109l110 43
q15 6 28.5 3t22 -12t11.5 -22.5t-3 -28.5l-42 -110l108 -48q15 -7 22.5 -18.5t7.5 -23.5t-7.5 -23t-22.5 -18l-108 -48l42 -111q6 -15 3 -28.5t-11.5 -22.5t-22 -11.5t-28.5 3.5l-110 43l-48 -109q-7 -15 -18.5 -22t-23.5 -7t-23.5 7t-18.5 22zM412 102q13 25 42 17l76 -29
l-29 76q-7 27 16 42l75 32l-75 33q-23 15 -16 42l29 76l-76 -29q-29 -8 -42 17l-33 74l-33 -74q-13 -25 -41 -17l-76 29l29 -76q6 -28 -17 -42l-74 -33l74 -32q23 -14 17 -42l-29 -76l76 29q28 8 41 -17l33 -74z" />
    </font>
</defs>
</svg>
